<svg width="538" height="523" viewBox="0 0 538 523" fill="none" xmlns="http://www.w3.org/2000/svg">
<g clip-path="url(#clip0_74_35)">
<path d="M53.9999 31.1998C46.1999 35.1998 42.0999 43.9998 43.9999 52.6998C47.0999 66.4998 61.6999 73.4998 73.3999 66.5998C81.5999 61.7998 85.4999 51.5998 82.4999 42.9998C78.2999 31.0998 65.0999 25.5998 53.9999 31.1998ZM70.8999 33.8998C76.1999 36.5998 79.9999 42.7998 79.9999 48.4998C79.9999 55.5998 76.5999 60.6998 69.2999 64.3998C60.5999 68.7998 49.8999 63.2998 46.9999 52.8998C45.5999 47.9998 47.4999 39.8998 50.6999 37.1998C57.0999 31.7998 64.3999 30.5998 70.8999 33.8998Z" fill="#404040"/>
<path d="M113 30.5999C108.8 32.3999 104.4 36.4999 102.4 40.1999C100.6 43.5999 100.6 53.0999 102.3 57.2999C104.2 61.7999 111.2 67.7999 115.5 68.5999C128.1 70.8999 137.8 64.5999 140.4 52.3999C141.3 48.0999 139.4 40.3999 136.4 36.4999C131.6 30.0999 120.5 27.2999 113 30.5999ZM125 32.7999C125 33.1999 125.9 33.5999 127 33.6999C130.2 33.9999 134.8 38.0999 136.5 42.1999C138.2 46.4999 138.5 51.9999 137 51.9999C136.5 51.9999 136.3 52.6999 136.6 53.4999C137.4 55.5999 132.3 61.7999 127.9 64.0999C121.5 67.2999 114.8 66.0999 108.9 60.7999C105.7 57.9999 104.3 55.2999 103.5 50.9999C102.8 46.9999 103.8 41.7999 105.1 42.4999C105.6 42.8999 105.7 42.2999 105.3 41.3999C104.9 40.2999 105.1 39.8999 105.7 40.2999C106.3 40.6999 106.7 40.2999 106.6 39.3999C106.5 37.4999 110.6 34.1999 113.7 33.6999C114.9 33.4999 116.3 33.0999 116.6 32.6999C117.6 31.6999 125 31.7999 125 32.7999Z" fill="#404040"/>
<path d="M387.6 35.6C385.4 37.7 385.6 40.7 387.9 42C389.2 42.6 407.2 43 439.5 43C471.8 43 489.8 42.6 491.1 42C493.5 40.7 493.6 37.8 491.2 35.7C489.5 34.2 484.5 34 439.2 34C395 34 389 34.2 387.6 35.6Z" fill="#404040"/>
<path d="M387.2 48.2C385.6 49.8 385.7 52.5 387.4 53.9C388.3 54.7 403 54.9 440 54.8C487.6 54.5 491.4 54.4 492.4 52.7C493.2 51.5 493.2 50.5 492.4 49.2C491.4 47.6 487.6 47.5 439.9 47.2C400.7 47 388.1 47.3 387.2 48.2Z" fill="#404040"/>
<path d="M134.3 113.5C131.1 114.9 130.3 116.3 129.8 122.5C129.5 125.1 129.1 125.5 126.5 125.6C121.8 125.7 119.3 126.9 118.6 129.3C118.3 130.5 118 140.1 118 150.6V169.6L121.3 172.8C123.1 174.6 125.6 176 126.7 176C127.9 176 129.2 176.6 129.7 177.2C130.6 178.7 130.3 217.1 129 259.5C128.6 274.9 128.5 296.7 128.8 308L129.3 328.6L126.9 331.1C125 333.2 123.8 333.6 121 333.3C118.5 333 116.7 333.4 115 334.8C112.7 336.6 112.6 337.6 111.4 355.1C110.7 365.2 110.1 376.7 110.1 380.7C110 387.5 110.2 388 113.1 390.4C114.8 391.8 117.2 393 118.6 393C120.6 393 121 393.5 121 395.9C121 397.6 122 400.1 123.4 401.7L125.8 404.5L171.6 405.3C222.3 406.1 220.5 406.3 221.2 399.7C221.4 397.2 222.1 396.5 224.7 395.8C230.7 394.2 231 393 231 368.1V345.6L224.5 339.2L218 332.9V318.1V303.2L240.3 302.7C252.5 302.5 271.8 302.7 283.2 303.3C301.1 304.2 304 304.6 304.5 306C305 307.6 306.9 330 307 334.7C307 336.4 305.8 337.6 302 339.5C299.3 340.9 296.6 343 295.9 344.1C295.2 345.5 294.8 353.6 294.7 367.7C294.7 388.1 294.8 389.2 296.8 391.2C297.9 392.4 300.6 393.6 302.7 393.9C306.3 394.5 306.5 394.7 306.8 398.7C307 401 307.7 403.3 308.3 403.8C309.1 404.5 327.9 405.1 357 405.6C409.4 406.4 406.5 406.7 407.2 400C407.5 397 407.9 396.5 410.9 395.9C414.2 395.2 415.8 393.6 417.2 389.5C417.5 388.4 417.8 377.5 417.9 365.3C418 343.6 418 343.1 415.7 340.5C414.1 338.5 412.2 337.7 408.8 337.3C404.8 336.8 404 336.3 402.9 333.8C402.2 332.2 400.7 330.5 399.6 330C397.5 329.3 397.5 329.1 397.8 287.9C397.9 265.1 398.3 233 398.7 216.6L399.3 186.7L402.1 185.7C404.7 184.7 406 182.9 407.4 178.7C407.7 177.7 408.9 177 410.5 177C411.9 177 414.1 176 415.4 174.7C417.6 172.5 417.7 171.5 418.3 153.6C418.9 133.1 418.4 130.3 414.1 129.4C409.2 128.3 409 128.1 409 124.1C409 118.8 407.3 115.4 404.1 114.1C399.9 112.5 309.4 112.2 307.9 113.8C307.2 114.4 306.3 117.1 306 119.8C305.5 124.4 305.4 124.5 302.3 124.2C299.9 124 298.4 124.5 296.4 126.5L293.8 129.1L294.2 152.5C294.5 179.2 294.5 179 302.7 180L307.5 180.5L307.3 188.5C307.2 192.9 306.9 199.3 306.5 202.7L305.9 208.8L300.2 209.2C291.6 209.8 243 208.2 231 206.9C225.2 206.3 220.2 205.3 219.8 204.7C219.4 204 219 197.5 219 190.3V177L222.4 175.6C228.4 173.1 228.9 171.4 229.6 150.4C230.4 128.3 230.2 127.5 223.5 126.5L219.1 125.8L218.8 121.2C218.3 113.1 219.2 113.3 175.5 112.7C144.9 112.3 136.9 112.4 134.3 113.5ZM210.5 131V136.5L175.3 136.8L140 137V151.6V166.1L135.8 165.8L131.5 165.5V150.5V135.5L135.3 135.8L139 136.1V131.1V126L167.8 125.7C183.6 125.6 199.7 125.4 203.5 125.5H210.5V131ZM395.8 126.6C396.7 126.8 397 128.4 396.8 131.2L396.5 135.5L357.8 135.8L319 136V152V168H331.5H344V199.5V231L271.8 230.8L199.5 230.5L199.2 199.6C199 175.5 199.3 168.5 200.2 167.8C200.9 167.4 204.3 167 207.8 167C214.1 167 214.1 167 213.8 169.7C213.6 172 212.9 172.6 210.5 172.8L207.5 173.1L207.8 196.8C208 209.8 208.2 220.5 208.3 220.5C208.4 220.5 233.7 220.4 264.4 220.2L320.3 219.9L319.6 199.7C319.2 188.6 318.7 177.1 318.3 174.2L317.7 169H312.2H306.7L307.3 159.2C307.7 153.9 308 146.7 308 143.2V137H311C314 137 314 136.9 314 131.7C314 128.7 314.3 126 314.6 125.7C315.3 125 393.5 125.9 395.8 126.6ZM219.8 150.2C220 164.3 220 165 218.1 165C217 165 215.5 165.3 214.7 165.6C213.1 166.2 212.4 160.8 211.7 143.8C211.5 136.7 211.6 136 213.5 135.7C219.6 134.4 219.5 134.2 219.8 150.2ZM406 151.5V167H401.5H397V151.5V136H401.5H406V151.5ZM160.2 167H168L167.8 257.2L167.5 347.5L150.5 347.6L133.5 347.8L133.2 365.9L133 384H128.5H124V376.7C124 372.8 123.7 363.8 123.3 356.7L122.7 344H127.3H132V340V336H137.4H142.7L143.2 255.2C143.5 210.8 143.4 174.4 143 174.2C139.9 173 138.7 171.1 139.4 168.5C140.1 165.7 140.2 165.7 146.2 166.4C149.6 166.7 155.8 167 160.2 167ZM396.5 172.5V176.5L391.3 176.8L386.1 177.1L386.7 228.3C387.2 274.7 386.3 319 384.4 333.7L383.9 338H388.4C393 338 393 338 393 341.5V344.9L399.8 345.2L406.5 345.5L406.8 364.7L407 384H404C401.1 384 401 384.1 401 389V394L389.8 394.1C383.6 394.1 365 394.2 348.5 394.3L318.5 394.5L318.2 390.3L317.9 386.1L312.2 385.8L306.5 385.5L306.9 374.7C307.1 368.8 307.5 360.5 307.9 356.2L308.5 348.5H313H317.5L317.8 367.2L318 385.8L357.8 385.7L397.5 385.5L397.2 367.5L396.9 349.5H386.7H376.5L376.6 346C376.6 344.1 377 303.6 377.4 256C377.9 208.4 378.4 169.1 378.7 168.7C379 168.3 383.1 168.1 387.8 168.2L396.5 168.5V172.5ZM343.5 316V348.5L330.8 348.8L318 349.1V320.1V291.2L262.3 291.3L206.5 291.5L206.2 317.2L206 343H209C211 343 212 343.5 212 344.5C212 345.3 213.3 346.6 214.9 347.4C218.2 349.2 218.6 351 219.6 371.7L220.3 385H216.6H213V389.5V394L184.8 393.9C169.2 393.8 151.1 393.5 144.5 393.1L132.5 392.5V389.1V385.7L172 385.6L211.5 385.5L211.8 366.7L212 348H205H198V316.2C198 298.7 198.2 284.1 198.4 283.9C198.7 283.7 231.4 283.5 271.2 283.5H343.5V316Z" fill="#404040"/>
<path d="M509 25.5998C509 25.8998 509.8 27.3998 510.8 28.7998C511.9 30.2998 513.3 33.0998 514 34.9998C515.7 39.6998 516.3 101.7 515.3 156.5C514.9 179.6 514.8 216.9 515.3 239.5C515.7 262 516.2 321 516.4 370.5C516.6 441.2 516.9 461.2 518 463.8C519.8 468.5 518.1 473.4 511.3 484C505.2 493.5 503.5 495.2 497 498.3C492.6 500.5 491.7 500.5 438.5 500.7C408.8 500.8 322.4 501.4 246.5 502C96.4998 503.2 48.0998 502.6 43.4998 499.6C41.2998 498.2 40.9998 498.1 40.9998 499.5C40.9998 501.4 37.4998 500.8 30.7998 497.6C26.6998 495.7 26.1998 495.6 27.0998 497.1C28.4998 499.9 33.0998 502.7 41.5998 506.1L49.4998 509.3L164 509.1C227 509 326.7 508.7 385.7 508.4C491.4 508 493 508 498.5 505.9C509.4 501.8 518 492.8 522.3 481L524.6 474.5L523.8 398C523.4 355.9 523.1 257.8 523.2 180C523.5 45.8998 523.4 38.1998 521.7 32.5998C520.6 28.9998 519.5 27.0998 519.1 27.8998C518.5 28.7998 517.2 28.5998 513.7 27.0998C511.1 25.9998 509 25.2998 509 25.5998Z" fill="#6B6B6B"/>
<path d="M61.2997 28.6996C62.1997 28.8996 63.7997 28.8996 64.7997 28.6996C65.6997 28.3996 64.8997 28.1996 62.9997 28.1996C61.0997 28.1996 60.2997 28.3996 61.2997 28.6996Z" fill="#6B6B6B"/>
<path d="M390.3 46.6996C391.2 46.8996 392.8 46.8996 393.8 46.6996C394.7 46.3996 393.9 46.1996 392 46.1996C390.1 46.1996 389.3 46.3996 390.3 46.6996Z" fill="#6B6B6B"/>
<path d="M412.8 46.6996C416.7 46.8996 423.3 46.8996 427.3 46.6996C431.2 46.5996 428 46.3996 420 46.3996C412 46.3996 408.8 46.5996 412.8 46.6996Z" fill="#6B6B6B"/>
<path d="M440.8 46.6996C444.2 46.8996 449.8 46.8996 453.3 46.6996C456.7 46.4996 453.9 46.3996 447 46.3996C440.1 46.3996 437.3 46.4996 440.8 46.6996Z" fill="#6B6B6B"/>
<path d="M464.3 46.6996C465.8 46.8996 468.2 46.8996 469.8 46.6996C471.3 46.4996 470 46.2996 467 46.2996C464 46.2996 462.7 46.4996 464.3 46.6996Z" fill="#6B6B6B"/>
<path d="M475.7 46.6996C477.5 46.8996 480.7 46.8996 482.7 46.6996C484.8 46.4996 483.4 46.2996 479.5 46.2996C475.7 46.2996 474 46.4996 475.7 46.6996Z" fill="#6B6B6B"/>
<path d="M414.8 55.6996C428.7 55.8996 451.2 55.8996 464.8 55.6996C478.4 55.5996 467 55.4996 439.5 55.4996C412 55.4996 400.9 55.5996 414.8 55.6996Z" fill="#6B6B6B"/>
<path d="M119.8 69.6996C121 69.8996 122.8 69.8996 123.8 69.6996C124.7 69.3996 123.7 69.1996 121.5 69.2996C119.3 69.2996 118.5 69.4996 119.8 69.6996Z" fill="#6B6B6B"/>
<path d="M161.8 112.7C164.1 112.9 167.9 112.9 170.3 112.7C172.6 112.5 170.7 112.3 166 112.3C161.3 112.3 159.4 112.5 161.8 112.7Z" fill="#6B6B6B"/>
<path d="M342.8 112.7C344.5 112.9 347.5 112.9 349.3 112.7C351 112.5 349.6 112.3 346 112.3C342.4 112.3 341 112.5 342.8 112.7Z" fill="#6B6B6B"/>
<path d="M219.3 122.5C219.3 124.7 219.5 125.5 219.7 124.2C219.9 123 219.9 121.2 219.7 120.2C219.4 119.3 219.2 120.3 219.3 122.5Z" fill="#6B6B6B"/>
<path d="M129.1 122.2C129 123.8 128.3 125 127.3 125.3C125.6 125.7 125.6 125.8 127.3 125.9C129.3 126 130.4 124 129.7 121.3C129.4 120.1 129.2 120.4 129.1 122.2Z" fill="#6B6B6B"/>
<path d="M202.5 125.7C206.3 125.9 209.8 126.6 210.3 127.3C210.9 128.1 211 128.1 210.7 127C210.4 125.8 208.6 125.5 202.9 125.4L195.5 125.3L202.5 125.7Z" fill="#6B6B6B"/>
<path d="M320.8 125.7C324.2 125.9 329.8 125.9 333.3 125.7C336.7 125.5 333.9 125.4 327 125.4C320.1 125.4 317.3 125.5 320.8 125.7Z" fill="#6B6B6B"/>
<path d="M139.2 131.5L139 137.5L174.2 137L209.5 136.5L174.8 136.2L140.1 136L139.7 130.7L139.4 125.5L139.2 131.5Z" fill="#6B6B6B"/>
<path d="M396.3 131C396.3 133.5 396.5 134.5 396.7 133.2C396.9 132 396.9 130 396.7 128.7C396.5 127.5 396.3 128.5 396.3 131Z" fill="#6B6B6B"/>
<path d="M230.3 139C230.3 143.7 230.5 145.6 230.7 143.2C230.9 140.9 230.9 137.1 230.7 134.7C230.5 132.4 230.3 134.3 230.3 139Z" fill="#6B6B6B"/>
<path d="M293.2 136C293.2 137.9 293.4 138.7 293.7 137.7C293.9 136.8 293.9 135.2 293.7 134.2C293.4 133.3 293.2 134.1 293.2 136Z" fill="#6B6B6B"/>
<path d="M131.4 136.4C131.1 137.2 131 138.9 131.3 140.2C131.6 142 131.8 141.8 131.9 139.3C132 137.2 132.6 136 133.8 135.7C135.4 135.3 135.4 135.2 133.7 135.1C132.7 135.1 131.7 135.6 131.4 136.4Z" fill="#6B6B6B"/>
<path d="M216.7 135.7C218.9 136.1 219 136.6 219.3 150.6L219.6 165L219.5 150.3V135.5L217 135.3C214.8 135.2 214.8 135.2 216.7 135.7Z" fill="#6B6B6B"/>
<path d="M139.3 151C139.3 155.1 139.5 156.8 139.7 154.7C139.9 152.7 139.9 149.3 139.7 147.2C139.5 145.2 139.3 146.9 139.3 151Z" fill="#6B6B6B"/>
<path d="M212.3 152C212.3 156.1 212.5 157.8 212.7 155.7C212.9 153.7 212.9 150.3 212.7 148.2C212.5 146.2 212.3 147.9 212.3 152Z" fill="#6B6B6B"/>
<path d="M418.3 150.5C418.3 153.8 418.5 155 418.7 153.2C418.9 151.4 418.9 148.7 418.7 147.2C418.5 145.7 418.3 147.2 418.3 150.5Z" fill="#6B6B6B"/>
<path d="M229.3 159.5C229.3 161.7 229.5 162.5 229.7 161.2C229.9 160 229.9 158.2 229.7 157.2C229.4 156.3 229.2 157.3 229.3 159.5Z" fill="#6B6B6B"/>
<path d="M307.3 160.5C307.3 163.2 307.5 164.3 307.7 162.7C307.9 161.2 307.9 159 307.7 157.7C307.5 156.5 307.3 157.7 307.3 160.5Z" fill="#6B6B6B"/>
<path d="M117.3 163.5C117.3 165.7 117.5 166.5 117.7 165.2C117.9 164 117.9 162.2 117.7 161.2C117.4 160.3 117.2 161.3 117.3 163.5Z" fill="#6B6B6B"/>
<path d="M134.8 165.7C136 165.9 137.8 165.9 138.8 165.7C139.7 165.4 138.7 165.2 136.5 165.3C134.3 165.3 133.5 165.5 134.8 165.7Z" fill="#6B6B6B"/>
<path d="M213.1 169.2C213.1 170.6 212.4 172.1 211.8 172.3C210.8 172.7 210.8 172.9 211.8 172.9C213.4 173 214.3 170.7 213.7 168.3C213.4 167.1 213.2 167.4 213.1 169.2Z" fill="#6B6B6B"/>
<path d="M199.5 199.2V230.5L207 230.6H214.5L207.3 230.3L200 229.9L199.7 199L199.5 168V199.2Z" fill="#6B6B6B"/>
<path d="M318.4 169.4C318.1 170.2 318 171.9 318.3 173.2C318.6 175 318.8 174.8 318.9 172.3L319 169.1L325.8 168.7L332.5 168.4L325.7 168.2C320.6 168 318.8 168.4 318.4 169.4Z" fill="#6B6B6B"/>
<path d="M378.4 169.3C378.2 170 378.1 175.3 378.3 181.1L378.6 191.5L378.8 180.3L379 169.1L386.8 168.7L394.5 168.4L386.7 168.2C381.1 168.1 378.8 168.4 378.4 169.3Z" fill="#6B6B6B"/>
<path d="M395.8 171.6C396.1 174 395.8 175.6 394.9 176.2C393.7 177 393.8 177.1 395 176.7C396.7 176.3 397.7 170.3 396.3 168.9C395.8 168.4 395.6 169.6 395.8 171.6Z" fill="#6B6B6B"/>
<path d="M207.4 198.5C207.4 211.1 207.6 216.2 207.7 209.7C207.9 203.2 207.9 192.9 207.7 186.7C207.6 180.5 207.4 185.8 207.4 198.5Z" fill="#6B6B6B"/>
<path d="M219.4 177.3C219.2 178 219.1 184.4 219.2 191.6L219.5 204.5L220 190.2C220.3 182.4 220.4 176 220.2 176C220.1 176 219.7 176.6 219.4 177.3Z" fill="#6B6B6B"/>
<path d="M385.2 180C385.2 181.9 385.4 182.7 385.7 181.7C385.9 180.8 385.9 179.2 385.7 178.2C385.4 177.3 385.2 178.1 385.2 180Z" fill="#6B6B6B"/>
<path d="M407.3 178.5C407 179.4 407 180.4 407.4 180.7C407.7 181.1 408 180.6 408 179.7C408 178.9 408.8 177.9 409.8 177.7C411.4 177.3 411.4 177.2 409.7 177.1C408.7 177.1 407.7 177.7 407.3 178.5Z" fill="#6B6B6B"/>
<path d="M304.7 180.6C306.6 181.1 307 181.9 307.3 186.3L307.7 191.5L307.6 186C307.5 180.9 307.3 180.5 305 180.3C302.9 180.2 302.8 180.2 304.7 180.6Z" fill="#6B6B6B"/>
<path d="M130.3 186C130.3 188.5 130.5 189.5 130.7 188.2C130.9 187 130.9 185 130.7 183.7C130.5 182.5 130.3 183.5 130.3 186Z" fill="#6B6B6B"/>
<path d="M319.3 191C319.3 193.5 319.5 194.5 319.7 193.2C319.9 192 319.9 190 319.7 188.7C319.5 187.5 319.3 188.5 319.3 191Z" fill="#6B6B6B"/>
<path d="M238.8 207.7C240 207.9 241.8 207.9 242.8 207.7C243.7 207.4 242.7 207.2 240.5 207.3C238.3 207.3 237.5 207.5 238.8 207.7Z" fill="#6B6B6B"/>
<path d="M258.8 208.7C260 208.9 262 208.9 263.3 208.7C264.5 208.5 263.5 208.3 261 208.3C258.5 208.3 257.5 208.5 258.8 208.7Z" fill="#6B6B6B"/>
<path d="M386.4 219.5C386.4 225 386.5 227.1 386.7 224.2C386.9 221.3 386.9 216.8 386.7 214.2C386.5 211.6 386.4 214 386.4 219.5Z" fill="#6B6B6B"/>
<path d="M398.3 227.5C398.3 231.9 398.5 233.6 398.7 231.2C398.9 228.9 398.9 225.3 398.7 223.2C398.5 221.2 398.3 223.1 398.3 227.5Z" fill="#6B6B6B"/>
<path d="M129.4 233.5C129.4 239 129.5 241.1 129.7 238.2C129.9 235.3 129.9 230.8 129.7 228.2C129.5 225.6 129.4 228 129.4 233.5Z" fill="#6B6B6B"/>
<path d="M143.3 262.5C143.3 265.2 143.5 266.3 143.7 264.7C143.9 263.2 143.9 261 143.7 259.7C143.5 258.5 143.3 259.7 143.3 262.5Z" fill="#6B6B6B"/>
<path d="M377.4 280.5C377.4 291.5 377.6 296.1 377.7 290.8C377.9 285.5 377.9 276.5 377.7 270.8C377.6 265.1 377.4 269.5 377.4 280.5Z" fill="#6B6B6B"/>
<path d="M128.3 273C128.3 277.1 128.5 278.8 128.7 276.7C128.9 274.7 128.9 271.3 128.7 269.2C128.5 267.2 128.3 268.9 128.3 273Z" fill="#6B6B6B"/>
<path d="M143.3 276.5C143.3 280.9 143.5 282.6 143.7 280.2C143.9 277.9 143.9 274.3 143.7 272.2C143.5 270.2 143.3 272.1 143.3 276.5Z" fill="#6B6B6B"/>
<path d="M386.3 288C386.3 291.6 386.5 293 386.7 291.2C386.9 289.5 386.9 286.5 386.7 284.7C386.5 283 386.3 284.4 386.3 288Z" fill="#6B6B6B"/>
<path d="M316.7 283.7L342.9 284L343.3 291.8L343.6 299.5V291.5L343.5 283.5H317L290.5 283.4L316.7 283.7Z" fill="#6B6B6B"/>
<path d="M198.2 315.7L198 348L200.3 347.9C201.9 347.8 202.1 347.7 200.8 347.3C199.2 346.9 199 344.3 198.7 315.2L198.5 283.5L198.2 315.7Z" fill="#6B6B6B"/>
<path d="M143.4 313.5C143.4 326.1 143.6 331.2 143.7 324.7C143.9 318.2 143.9 307.9 143.7 301.7C143.6 295.5 143.4 300.8 143.4 313.5Z" fill="#6B6B6B"/>
<path d="M318.4 318C318.4 333.1 318.6 339.3 318.7 331.7C318.9 324.2 318.9 311.8 318.7 304.2C318.6 296.7 318.4 302.9 318.4 318Z" fill="#6B6B6B"/>
<path d="M128.3 304C128.3 308.1 128.5 309.8 128.7 307.7C128.9 305.7 128.9 302.3 128.7 300.2C128.5 298.2 128.3 299.9 128.3 304Z" fill="#6B6B6B"/>
<path d="M260.3 302.7C261.8 302.9 264 302.9 265.3 302.7C266.5 302.5 265.3 302.3 262.5 302.3C259.8 302.3 258.7 302.5 260.3 302.7Z" fill="#6B6B6B"/>
<path d="M280.8 303.7C282 303.9 284 303.9 285.3 303.7C286.5 303.5 285.5 303.3 283 303.3C280.5 303.3 279.5 303.5 280.8 303.7Z" fill="#6B6B6B"/>
<path d="M299.3 304.7C300.2 304.9 301.8 304.9 302.8 304.7C303.7 304.4 302.9 304.2 301 304.2C299.1 304.2 298.3 304.4 299.3 304.7Z" fill="#6B6B6B"/>
<path d="M385.3 310C385.3 312.5 385.5 313.5 385.7 312.2C385.9 311 385.9 309 385.7 307.7C385.5 306.5 385.3 307.5 385.3 310Z" fill="#6B6B6B"/>
<path d="M218.2 321.7C218.1 328.4 218.3 334.1 218.8 334.3C219.2 334.6 219.4 330.9 219.2 326.2C218.8 310.9 218.4 309.2 218.2 321.7Z" fill="#6B6B6B"/>
<path d="M397.4 323.4C397.5 327.8 397.9 329.4 399 329.7C400 330 400.1 329.9 399.3 329.3C398.7 328.8 397.9 326 397.7 323L397.3 317.5L397.4 323.4Z" fill="#6B6B6B"/>
<path d="M384.3 328.5C384.3 331.8 384.5 333 384.7 331.2C384.9 329.4 384.9 326.7 384.7 325.2C384.5 323.7 384.3 325.2 384.3 328.5Z" fill="#6B6B6B"/>
<path d="M167.4 335.5C167.4 342.1 167.5 344.7 167.7 341.2C167.9 337.8 167.9 332.4 167.7 329.2C167.5 326.1 167.4 328.9 167.4 335.5Z" fill="#6B6B6B"/>
<path d="M306.3 332C306.3 334.5 306.5 335.5 306.7 334.2C306.9 333 306.9 331 306.7 329.7C306.5 328.5 306.3 329.5 306.3 332Z" fill="#6B6B6B"/>
<path d="M224 338.5C225.9 340.4 227.6 342 227.9 342C228.2 342 226.9 340.4 225 338.5C223.1 336.6 221.4 335 221.1 335C220.8 335 222.1 336.6 224 338.5Z" fill="#6B6B6B"/>
<path d="M387.8 338.7C389 338.9 390.8 338.9 391.8 338.7C392.7 338.4 391.7 338.2 389.5 338.3C387.3 338.3 386.5 338.5 387.8 338.7Z" fill="#6B6B6B"/>
<path d="M123.3 351C123.3 355.1 123.5 356.8 123.7 354.7C123.9 352.7 123.9 349.3 123.7 347.2C123.5 345.2 123.3 346.9 123.3 351Z" fill="#6B6B6B"/>
<path d="M376.4 347.5C376.5 349.2 377.2 349.5 381.5 349.6L386.5 349.7L381.8 349.3C378.5 349 377 348.4 376.7 347.2C376.4 346 376.3 346.1 376.4 347.5Z" fill="#6B6B6B"/>
<path d="M406 361.3L406.5 377.5L406.8 362.1C406.9 353.6 406.7 346.3 406.3 345.9C405.8 345.4 405.7 352.4 406 361.3Z" fill="#6B6B6B"/>
<path d="M111.3 350.5C111.3 352.7 111.5 353.5 111.7 352.2C111.9 351 111.9 349.2 111.7 348.2C111.4 347.3 111.2 348.3 111.3 350.5Z" fill="#6B6B6B"/>
<path d="M138.7 347.7C140.5 347.9 143.7 347.9 145.7 347.7C147.8 347.5 146.4 347.3 142.5 347.3C138.7 347.3 137 347.5 138.7 347.7Z" fill="#6B6B6B"/>
<path d="M324.3 348.7C328 348.9 333.9 348.9 337.3 348.7C340.7 348.5 337.7 348.4 330.5 348.4C323.4 348.4 320.6 348.5 324.3 348.7Z" fill="#6B6B6B"/>
<path d="M231.4 369C231.4 380.3 231.6 384.9 231.7 379.2C231.9 373.6 231.9 364.4 231.7 358.7C231.6 353.1 231.4 357.7 231.4 369Z" fill="#6B6B6B"/>
<path d="M317.4 371.2C317.5 388 317.9 393.3 318.9 394.2C320 395.3 320.1 395.2 319.5 394C319 393.2 318.3 382.9 317.9 371L317.2 349.5L317.4 371.2Z" fill="#6B6B6B"/>
<path d="M397.4 360.5C397.4 365.4 397.5 367.6 397.7 365.3C397.9 363 397.9 358.9 397.7 356.3C397.5 353.7 397.4 355.5 397.4 360.5Z" fill="#6B6B6B"/>
<path d="M294.3 356.5C294.3 358.7 294.5 359.5 294.7 358.2C294.9 357 294.9 355.2 294.7 354.2C294.4 353.3 294.2 354.3 294.3 356.5Z" fill="#6B6B6B"/>
<path d="M218.2 358C218.2 359.9 218.4 360.7 218.7 359.7C218.9 358.8 218.9 357.2 218.7 356.2C218.4 355.3 218.2 356.1 218.2 358Z" fill="#6B6B6B"/>
<path d="M307.2 365C307.2 366.9 307.4 367.7 307.7 366.7C307.9 365.8 307.9 364.2 307.7 363.2C307.4 362.3 307.2 363.1 307.2 365Z" fill="#6B6B6B"/>
<path d="M418.3 372.5C418.3 376.3 418.5 377.8 418.7 375.7C418.9 373.7 418.9 370.5 418.7 368.7C418.5 367 418.3 368.6 418.3 372.5Z" fill="#6B6B6B"/>
<path d="M219.3 373.5C219.3 375.7 219.5 376.5 219.7 375.2C219.9 374 219.9 372.2 219.7 371.2C219.4 370.3 219.2 371.3 219.3 373.5Z" fill="#6B6B6B"/>
<path d="M405.8 381C405.5 382.6 405.7 384 406.2 384C406.6 384 407 382.6 407 381C407 379.3 406.8 378 406.6 378C406.4 378 406 379.3 405.8 381Z" fill="#6B6B6B"/>
<path d="M132.4 386.4C132.1 387.2 132 388.9 132.2 390.2C132.5 392.2 133.1 392.5 137.3 392.6L142 392.7L137.5 392.3C133.3 391.9 133 391.7 133 389C133 386.5 133.4 386.1 136.3 385.7L139.5 385.3L136.2 385.2C134.2 385.1 132.7 385.5 132.4 386.4Z" fill="#6B6B6B"/>
<path d="M158.8 393.7C161.6 393.9 166.4 393.9 169.3 393.7C172.1 393.5 169.8 393.4 164 393.4C158.2 393.4 155.9 393.5 158.8 393.7Z" fill="#6B6B6B"/>
<path d="M334.3 394.7C339.1 394.9 346.9 394.9 351.8 394.7C356.6 394.6 352.6 394.4 343 394.4C333.4 394.4 329.4 394.6 334.3 394.7Z" fill="#6B6B6B"/>
<path d="M407.4 397.4C407.1 398.2 407 399.9 407.3 401.2C407.6 403 407.8 402.8 407.9 400.3C407.9 398.6 408.6 396.9 409.3 396.7C410.2 396.3 410.2 396.1 409.2 396.1C408.5 396 407.7 396.6 407.4 397.4Z" fill="#6B6B6B"/>
<path d="M147.3 405.7C154.8 405.9 167.2 405.9 174.8 405.7C182.3 405.6 176.1 405.4 161 405.4C145.9 405.4 139.7 405.6 147.3 405.7Z" fill="#6B6B6B"/>
<path d="M319.8 405.7C325.4 405.9 334.6 405.9 340.3 405.7C345.9 405.6 341.3 405.4 330 405.4C318.7 405.4 314.1 405.6 319.8 405.7Z" fill="#6B6B6B"/>
<path d="M390.3 406.7C392.9 406.9 397 406.9 399.3 406.7C401.6 406.5 399.5 406.4 394.5 406.4C389.6 406.4 387.7 406.5 390.3 406.7Z" fill="#6B6B6B"/>
<path d="M41.4999 8.09994C31.8999 10.9999 23.2999 18.4999 18.5999 27.7999C13.5999 37.6999 13.6999 37.1 14.3999 131.9C15.8999 347.1 16.0999 396.3 15.2999 425C14.8999 441.8 14.6999 460.9 14.9999 467.5C15.3999 477.9 15.8999 480.2 18.1999 485C19.6999 488 22.2999 492.1 23.9999 494C25.6999 495.9 26.8999 497 26.5999 496.4C26.2999 495.8 27.7999 496.2 29.9999 497.2C32.1999 498.3 35.5999 499.6 37.4999 500C40.7999 500.7 40.9999 500.6 40.3999 498.8C39.7999 496.9 39.9999 496.9 42.9999 499.1L46.1999 501.5L85.7999 502.1C107.7 502.4 150.5 502.4 181 502.2C211.5 502 293.9 501.5 364 501.1C488.4 500.4 491.6 500.3 496.3 498.4C502.7 495.7 505.8 492.6 511.9 482.7C518.2 472.7 519.7 467.7 517.8 464.1C516.8 462 516.5 444.5 516.3 373C516.1 324.3 515.7 269.4 515.2 251C514.8 232.6 514.7 199.5 515 177.5C515.3 155.5 515.4 115.4 515.4 88.3999C515.2 37.1999 515 34.7999 510.9 28.7999C508.2 24.9999 508.5 24.7999 513.7 27.0999C517.3 28.5999 518.5 28.7999 519.1 27.7999C520.7 25.2999 514.2 17.4999 506.5 12.4999C496.5 6.09994 514.6 6.49994 270.1 6.49994C68.4999 6.49994 46.0999 6.69994 41.4999 8.09994ZM495.6 17.1999C497.7 18.6999 501.6 21.6999 504.3 23.6999L509.1 27.4999L509.6 107.5C509.9 151.5 510.4 187.8 510.6 188.2C510.9 188.6 511 231.8 510.8 284.2C510.4 433.8 510.4 456.9 511.4 466.6C512.3 475.8 512.3 475.8 509.1 481.3C505.2 488.1 500.7 492.2 494.6 494.5C490.5 496.1 487.8 496.2 473.2 495.7C464 495.3 440.5 495.5 421 496C296.4 499.2 79.4999 498.8 45.8999 495.4C39.8999 494.8 39.5999 494.6 25.1999 476.7L21.8999 472.5L22.6999 464C23.0999 459.3 23.4999 449.9 23.4999 443C22.7999 103.9 22.8999 41.0999 23.8999 37.4999C26.0999 29.7999 28.2999 27.0999 37.9999 20.6999L47.3999 14.2999L269.5 14.3999L491.6 14.4999L495.6 17.1999ZM21.6999 289.7C21.3999 290.7 21.1999 289.9 21.1999 288C21.1999 286.1 21.3999 285.3 21.6999 286.2C21.8999 287.2 21.8999 288.8 21.6999 289.7ZM21.6999 335.2C21.4999 337 21.2999 335.8 21.2999 332.5C21.2999 329.2 21.4999 327.7 21.6999 329.2C21.8999 330.7 21.8999 333.4 21.6999 335.2ZM21.6999 345.7C21.4999 347.3 21.2999 346.2 21.2999 343.5C21.2999 340.7 21.4999 339.5 21.6999 340.7C21.8999 342 21.8999 344.2 21.6999 345.7Z" fill="#969696"/>
<path d="M414.8 43.7001C428.6 43.9001 451.4 43.9001 465.3 43.7001C479.1 43.6001 467.8 43.5001 440 43.5001C412.2 43.5001 400.9 43.6001 414.8 43.7001Z" fill="#969696"/>
<path d="M141.3 49.5002C141.3 52.2002 141.5 53.3002 141.7 51.7002C141.9 50.2002 141.9 48.0002 141.7 46.7002C141.5 45.5002 141.3 46.7002 141.3 49.5002Z" fill="#969696"/>
<path d="M82 58C81.3 59.6 79 62.6 76.9 64.5C74.7 66.4 73.4 68 73.8 68C75.9 68 84.9 56.6 83.7 55.4C83.5 55.1 82.7 56.3 82 58Z" fill="#969696"/>
<path d="M136 63.2001C134.5 65.3001 134.3 66.0001 135.4 65.1001C137 63.8001 139.5 60.0001 138.7 60.0001C138.5 60.0001 137.3 61.5001 136 63.2001Z" fill="#969696"/>
<path d="M61.2997 70.7001C62.1997 70.9001 63.7997 70.9001 64.7997 70.7001C65.6997 70.4001 64.8997 70.2001 62.9997 70.2001C61.0997 70.2001 60.2997 70.4001 61.2997 70.7001Z" fill="#969696"/>
<path d="M177.3 112.7C179.3 112.9 182.7 112.9 184.8 112.7C186.8 112.5 185.1 112.3 181 112.3C176.9 112.3 175.2 112.5 177.3 112.7Z" fill="#969696"/>
<path d="M363.8 112.7C370.5 112.9 381.5 112.9 388.3 112.7C395 112.6 389.5 112.4 376 112.4C362.5 112.4 357 112.6 363.8 112.7Z" fill="#969696"/>
<path d="M305.3 120.5C305.3 122.7 305.5 123.5 305.7 122.2C305.9 121 305.9 119.2 305.7 118.2C305.4 117.3 305.2 118.3 305.3 120.5Z" fill="#969696"/>
<path d="M409.3 123C409.3 125.5 409.5 126.5 409.7 125.2C409.9 124 409.9 122 409.7 120.7C409.5 119.5 409.3 120.5 409.3 123Z" fill="#969696"/>
<path d="M314.3 131.5C314.3 134.8 314.5 136 314.7 134.2C314.9 132.4 314.9 129.7 314.7 128.2C314.5 126.7 314.3 128.2 314.3 131.5Z" fill="#969696"/>
<path d="M375.2 126.7C378.9 126.9 385.2 126.9 389.2 126.7C393.2 126.6 390.2 126.4 382.5 126.4C374.8 126.4 371.5 126.5 375.2 126.7Z" fill="#969696"/>
<path d="M210.2 131C210.2 132.9 210.4 133.7 210.7 132.7C210.9 131.8 210.9 130.2 210.7 129.2C210.4 128.3 210.2 129.1 210.2 131Z" fill="#969696"/>
<path d="M419.3 139.5C419.3 142.2 419.5 143.3 419.7 141.7C419.9 140.2 419.9 138 419.7 136.7C419.5 135.5 419.3 136.7 419.3 139.5Z" fill="#969696"/>
<path d="M308.4 138.5C308.1 139.3 308 140.5 308.3 141.2C308.6 141.9 308.9 141.5 308.9 140.3C309 139.1 309.6 137.9 310.3 137.7C311.2 137.3 311.2 137.1 310.2 137.1C309.5 137 308.7 137.7 308.4 138.5Z" fill="#969696"/>
<path d="M318 152.5V168H313.1C310 168 308 167.5 307.7 166.7C307.5 166 307.4 166.1 307.4 167C307.5 168.1 309 168.6 313.3 168.8L319 169.1V153C319 144.2 318.8 137 318.5 137C318.2 137 318 144 318 152.5Z" fill="#969696"/>
<path d="M293.4 149C293.4 154.8 293.5 157.1 293.7 154.2C293.9 151.4 293.9 146.6 293.7 143.7C293.5 140.9 293.4 143.2 293.4 149Z" fill="#969696"/>
<path d="M397.5 152.7V166.5H401.5H405.5L405.6 156V145.5L405.3 155.7L404.9 166H401.5H398.1L397.7 152.5L397.4 139L397.5 152.7Z" fill="#969696"/>
<path d="M131.3 148.5C131.3 151.8 131.5 153 131.7 151.2C131.9 149.4 131.9 146.7 131.7 145.2C131.5 143.7 131.3 145.2 131.3 148.5Z" fill="#969696"/>
<path d="M230.2 150C230.2 151.9 230.4 152.7 230.7 151.7C230.9 150.8 230.9 149.2 230.7 148.2C230.4 147.3 230.2 148.1 230.2 150Z" fill="#969696"/>
<path d="M117.3 155C117.3 157.5 117.5 158.5 117.7 157.2C117.9 156 117.9 154 117.7 152.7C117.5 151.5 117.3 152.5 117.3 155Z" fill="#969696"/>
<path d="M213.3 161C213.3 163.5 213.5 164.5 213.7 163.2C213.9 162 213.9 160 213.7 158.7C213.5 157.5 213.3 158.5 213.3 161Z" fill="#969696"/>
<path d="M418.3 164.5C418.3 168.9 418.5 170.6 418.7 168.2C418.9 165.9 418.9 162.3 418.7 160.2C418.5 158.2 418.3 160.1 418.3 164.5Z" fill="#969696"/>
<path d="M139.3 161.5C139.3 163.7 139.5 164.5 139.7 163.2C139.9 162 139.9 160.2 139.7 159.2C139.4 158.3 139.2 159.3 139.3 161.5Z" fill="#969696"/>
<path d="M151.8 167.7C154.1 167.9 157.9 167.9 160.3 167.7C162.6 167.5 160.7 167.3 156 167.3C151.3 167.3 149.4 167.5 151.8 167.7Z" fill="#969696"/>
<path d="M210.2 167.7C211.1 167.9 212.1 169.1 212.3 170.3C212.7 172.1 212.8 172 212.9 169.7C213 167.5 212.6 167 210.8 167.1C209.2 167.2 209 167.4 210.2 167.7Z" fill="#969696"/>
<path d="M167.3 175C167.3 179.1 167.5 180.8 167.7 178.7C167.9 176.7 167.9 173.3 167.7 171.2C167.5 169.2 167.3 170.9 167.3 175Z" fill="#969696"/>
<path d="M339.2 168.7C342.2 169 343 169.6 343.3 171.6C343.7 173.7 343.7 173.7 343.6 171.3C343.5 168.7 343.1 168.5 339.5 168.4L335.5 168.3L339.2 168.7Z" fill="#969696"/>
<path d="M395.2 173C395.2 174.9 395.4 175.7 395.7 174.7C395.9 173.8 395.9 172.2 395.7 171.2C395.4 170.3 395.2 171.1 395.2 173Z" fill="#969696"/>
<path d="M206.4 173.5C206.1 174.3 206 175.5 206.3 176.2C206.6 176.9 206.9 176.5 206.9 175.3C207 173.9 207.8 173 209.3 172.7L211.5 172.3L209.2 172.1C208 172.1 206.7 172.7 206.4 173.5Z" fill="#969696"/>
<path d="M144.2 177C144.2 178.9 144.4 179.7 144.7 178.7C144.9 177.8 144.9 176.2 144.7 175.2C144.4 174.3 144.2 175.1 144.2 177Z" fill="#969696"/>
<path d="M387.3 176.7C388.8 176.9 391 176.9 392.3 176.7C393.5 176.5 392.3 176.3 389.5 176.3C386.8 176.3 385.7 176.5 387.3 176.7Z" fill="#969696"/>
<path d="M319.3 181.5C319.3 184.2 319.5 185.3 319.7 183.7C319.9 182.2 319.9 180 319.7 178.7C319.5 177.5 319.3 178.7 319.3 181.5Z" fill="#969696"/>
<path d="M343.4 190.5C343.4 196 343.5 198.1 343.7 195.2C343.9 192.3 343.9 187.8 343.7 185.2C343.5 182.6 343.4 185 343.4 190.5Z" fill="#969696"/>
<path d="M403.5 185.1C401.9 186.1 401 187 401.6 187C402.3 187 403.8 186.1 405.1 185C408.1 182.6 407.4 182.6 403.5 185.1Z" fill="#969696"/>
<path d="M385.4 193.5C385.4 199 385.5 201.1 385.7 198.2C385.9 195.3 385.9 190.8 385.7 188.2C385.5 185.6 385.4 188 385.4 193.5Z" fill="#969696"/>
<path d="M399.4 205C399.4 210.2 399.5 212.4 399.7 209.7C399.9 207.1 399.9 202.9 399.7 200.2C399.5 197.6 399.4 199.8 399.4 205Z" fill="#969696"/>
<path d="M129.4 213C129.4 219.3 129.5 221.9 129.7 218.7C129.9 215.6 129.9 210.4 129.7 207.2C129.5 204.1 129.4 206.7 129.4 213Z" fill="#969696"/>
<path d="M343.3 206.5C343.3 209.2 343.5 210.3 343.7 208.7C343.9 207.2 343.9 205 343.7 203.7C343.5 202.5 343.3 203.7 343.3 206.5Z" fill="#969696"/>
<path d="M378.5 237.5C378.5 257.3 378.6 265.5 378.7 255.8C378.9 246.1 378.9 229.9 378.7 219.8C378.6 209.7 378.5 217.7 378.5 237.5Z" fill="#969696"/>
<path d="M245.8 207.7C247 207.9 248.8 207.9 249.8 207.7C250.7 207.4 249.7 207.2 247.5 207.3C245.3 207.3 244.5 207.5 245.8 207.7Z" fill="#969696"/>
<path d="M266.8 208.7C268 208.9 270 208.9 271.3 208.7C272.5 208.5 271.5 208.3 269 208.3C266.5 208.3 265.5 208.5 266.8 208.7Z" fill="#969696"/>
<path d="M217.3 220.7C218.2 220.9 219.8 220.9 220.8 220.7C221.7 220.4 220.9 220.2 219 220.2C217.1 220.2 216.3 220.4 217.3 220.7Z" fill="#969696"/>
<path d="M247.8 220.7C261.1 220.9 282.9 220.9 296.3 220.7C309.6 220.6 298.7 220.5 272 220.5C245.3 220.5 234.4 220.6 247.8 220.7Z" fill="#969696"/>
<path d="M228.3 230.7C235.4 230.9 246.6 230.9 253.3 230.7C260 230.6 254.3 230.4 240.5 230.4C226.8 230.4 221.3 230.6 228.3 230.7Z" fill="#969696"/>
<path d="M386.4 256C386.4 270.6 386.6 276.5 386.7 269.2C386.9 262 386.9 250 386.7 242.7C386.6 235.5 386.4 241.4 386.4 256Z" fill="#969696"/>
<path d="M398.4 246C398.4 251.8 398.5 254.1 398.7 251.2C398.9 248.4 398.9 243.6 398.7 240.7C398.5 237.9 398.4 240.2 398.4 246Z" fill="#969696"/>
<path d="M128.3 261.5C128.3 264.2 128.5 265.3 128.7 263.7C128.9 262.2 128.9 260 128.7 258.7C128.5 257.5 128.3 258.7 128.3 261.5Z" fill="#969696"/>
<path d="M398.4 292C398.4 304.9 398.6 310.2 398.7 303.7C398.9 297.3 398.9 286.7 398.7 280.2C398.6 273.8 398.4 279.1 398.4 292Z" fill="#969696"/>
<path d="M167.4 298.5C167.4 311.1 167.6 316.2 167.7 309.7C167.9 303.2 167.9 292.9 167.7 286.7C167.6 280.5 167.4 285.8 167.4 298.5Z" fill="#969696"/>
<path d="M223.8 284.7C237.6 284.9 260.4 284.9 274.3 284.7C288.1 284.6 276.8 284.5 249 284.5C221.2 284.5 209.9 284.6 223.8 284.7Z" fill="#969696"/>
<path d="M205.5 291.3C205.2 292 205.1 303.8 205.3 317.5L205.5 342.5L205.8 316.8L206 291L262.3 290.7L318.5 290.5L262.2 290.2C217.5 290 205.8 290.3 205.5 291.3Z" fill="#969696"/>
<path d="M385.3 301C385.3 304 385.5 305.3 385.7 303.7C385.9 302.2 385.9 299.8 385.7 298.2C385.5 296.7 385.3 298 385.3 301Z" fill="#969696"/>
<path d="M343.4 323.5C343.4 337.2 343.6 343 343.7 336.3C343.9 329.6 343.9 318.4 343.7 311.3C343.6 304.3 343.4 309.7 343.4 323.5Z" fill="#969696"/>
<path d="M377.4 321C377.4 332.3 377.6 336.9 377.7 331.2C377.9 325.6 377.9 316.4 377.7 310.7C377.6 305.1 377.4 309.7 377.4 321Z" fill="#969696"/>
<path d="M236.7 303.7C244.6 303.9 257.4 303.9 265.3 303.7C273.1 303.6 266.7 303.4 251 303.4C235.3 303.4 228.9 303.6 236.7 303.7Z" fill="#969696"/>
<path d="M288.8 304.7C290.5 304.9 293.5 304.9 295.3 304.7C297 304.5 295.6 304.3 292 304.3C288.4 304.3 287 304.5 288.8 304.7Z" fill="#969696"/>
<path d="M128.3 317C128.3 320.6 128.5 322 128.7 320.2C128.9 318.5 128.9 315.5 128.7 313.7C128.5 312 128.3 313.4 128.3 317Z" fill="#969696"/>
<path d="M384.3 318.5C384.3 321.2 384.5 322.3 384.7 320.7C384.9 319.2 384.9 317 384.7 315.7C384.5 314.5 384.3 315.7 384.3 318.5Z" fill="#969696"/>
<path d="M383.3 336.2C383.5 339 383.9 339.5 386.3 339.6C388.7 339.7 388.7 339.7 386.6 339.3C384.8 339 384 338.1 383.6 335.9C383 333.1 383 333.2 383.3 336.2Z" fill="#969696"/>
<path d="M392.3 342.2L392.5 345.5L399 345.6L405.5 345.7L399.3 345.3C393.4 344.9 393.1 344.8 392.6 342C392 339.1 392 339.1 392.3 342.2Z" fill="#969696"/>
<path d="M418.4 355C418.4 360.8 418.5 363.1 418.7 360.2C418.9 357.4 418.9 352.6 418.7 349.7C418.5 346.9 418.4 349.2 418.4 355Z" fill="#969696"/>
<path d="M154.3 347.7C156.9 347.9 161 347.9 163.3 347.7C165.6 347.5 163.5 347.4 158.5 347.4C153.6 347.4 151.7 347.5 154.3 347.7Z" fill="#969696"/>
<path d="M204.8 347.7C206 347.9 208 347.9 209.3 347.7C210.5 347.5 209.5 347.3 207 347.3C204.5 347.3 203.5 347.5 204.8 347.7Z" fill="#969696"/>
<path d="M212.1 352.7C212.2 358.9 212.7 358.3 213.2 351.2C213.4 348.9 213.2 347 212.8 347C212.3 347 212.1 349.6 212.1 352.7Z" fill="#969696"/>
<path d="M110.2 362C110.2 363.9 110.4 364.7 110.7 363.7C110.9 362.8 110.9 361.2 110.7 360.2C110.4 359.3 110.2 360.1 110.2 362Z" fill="#969696"/>
<path d="M294.3 363.5C294.3 365.7 294.5 366.5 294.7 365.2C294.9 364 294.9 362.2 294.7 361.2C294.4 360.3 294.2 361.3 294.3 363.5Z" fill="#969696"/>
<path d="M218.3 365C218.3 367.5 218.5 368.5 218.7 367.2C218.9 366 218.9 364 218.7 362.7C218.5 361.5 218.3 362.5 218.3 365Z" fill="#969696"/>
<path d="M398.3 379C398.3 383.1 398.5 384.8 398.7 382.7C398.9 380.7 398.9 377.3 398.7 375.2C398.5 373.2 398.3 374.9 398.3 379Z" fill="#969696"/>
<path d="M219.2 381C219.2 382.9 219.4 383.7 219.7 382.7C219.9 381.8 219.9 380.2 219.7 379.2C219.4 378.3 219.2 379.1 219.2 381Z" fill="#969696"/>
<path d="M418.3 384C418.3 386.5 418.5 387.5 418.7 386.2C418.9 385 418.9 383 418.7 381.7C418.5 380.5 418.3 381.5 418.3 384Z" fill="#969696"/>
<path d="M212.3 383C212.5 383.8 213.7 384.6 215.1 384.7C217 384.8 217.1 384.8 215.5 384.3C214.4 384 213.1 383.3 212.7 382.6C212.1 381.9 212 382 212.3 383Z" fill="#969696"/>
<path d="M400.7 383.7C400.3 384 400 386.3 400 388.6V393L374.3 393.3L348.5 393.6L374.5 393.5H400.5L400.8 388.8C401.1 384.9 401.5 384.1 403.3 383.7C405.4 383.3 405.4 383.3 403.4 383.1C402.3 383.1 401 383.3 400.7 383.7Z" fill="#969696"/>
<path d="M156.8 386.7C166.9 386.9 183.1 386.9 192.8 386.7C202.5 386.6 194.3 386.5 174.5 386.5C154.7 386.5 146.7 386.6 156.8 386.7Z" fill="#969696"/>
<path d="M212.1 389.2L212 393L193.3 393.3L174.5 393.5L193.3 393.8C213.7 394 213.6 394.1 212.7 388.3C212.4 385.9 212.3 386.1 212.1 389.2Z" fill="#969696"/>
<path d="M322.8 386.7C324.5 386.9 327.5 386.9 329.3 386.7C331 386.5 329.6 386.3 326 386.3C322.4 386.3 321 386.5 322.8 386.7Z" fill="#969696"/>
<path d="M378.8 386.7C382.2 386.9 387.8 386.9 391.3 386.7C394.7 386.5 391.9 386.4 385 386.4C378.1 386.4 375.3 386.5 378.8 386.7Z" fill="#969696"/>
<path d="M145.8 392.7C147.5 392.9 150.5 392.9 152.3 392.7C154 392.5 152.6 392.3 149 392.3C145.4 392.3 144 392.5 145.8 392.7Z" fill="#969696"/>
<path d="M306.2 399C306.2 400.9 306.4 401.7 306.7 400.7C306.9 399.8 306.9 398.2 306.7 397.2C306.4 396.3 306.2 397.1 306.2 399Z" fill="#969696"/>
<path d="M128.3 405.7C129.2 405.9 130.8 405.9 131.8 405.7C132.7 405.4 131.9 405.2 130 405.2C128.1 405.2 127.3 405.4 128.3 405.7Z" fill="#969696"/>
<path d="M193.3 406.7C198.1 406.9 205.8 406.9 210.3 406.7C214.8 406.6 210.9 406.4 201.5 406.4C192.2 406.4 188.5 406.6 193.3 406.7Z" fill="#969696"/>
<path d="M354.8 406.7C360.4 406.9 369.6 406.9 375.3 406.7C380.9 406.6 376.3 406.4 365 406.4C353.7 406.4 349.1 406.6 354.8 406.7Z" fill="#969696"/>
<path d="M521.5 31.5001C521.8 32.6001 522.4 35.7001 522.9 38.4001C523.4 41.2001 523.6 97.8001 523.3 173.4C523.1 244.9 523.3 342 523.7 389C524.6 469 524.5 474.8 522.9 479.7C517.7 495.2 505.9 505.6 490.8 507.9C487.9 508.4 396.9 508.8 288.5 508.9C180.1 508.9 84.0997 509.3 74.9997 509.6C55.3997 510.4 47.2997 509.3 37.7997 504.7C31.3997 501.6 30.1997 502.5 36.3997 505.7C38.0997 506.6 40.0997 508.1 40.7997 509.1C41.4997 510.2 42.6997 511 43.4997 511C44.1997 511 45.4997 511.6 46.2997 512.4C46.9997 513.2 49.8997 514.6 52.5997 515.5C56.7997 516.9 60.1997 517.1 75.4997 516.6C85.3997 516.3 184.6 515.7 296 515.4C484.9 514.8 498.8 514.7 503.1 513C513.8 509 520.7 502.2 526.2 490L529.2 483.5L528.9 409.5C528.6 327.4 528.6 196.3 528.9 107.5C529.1 49.3001 528.9 45.6001 525.5 40.4001C524.7 39.1001 524 37.5001 524 36.8001C523.9 36.1001 523.3 34.1001 522.5 32.5001C521.7 30.8001 521.2 30.4001 521.5 31.5001Z" fill="#969696"/>
<path d="M58.2001 5.7001C63.0001 5.9001 71.1001 5.9001 76.2001 5.7001C81.3001 5.6001 77.4001 5.4001 67.5001 5.4001C57.6001 5.4001 53.4001 5.6001 58.2001 5.7001Z" fill="#C1C1C1"/>
<path d="M407.7 5.7001C422.7 5.9001 447.3 5.9001 462.2 5.7001C477.2 5.6001 465 5.5001 435 5.5001C405 5.5001 392.8 5.6001 407.7 5.7001Z" fill="#C1C1C1"/>
<path d="M176.2 6.7001C212.3 6.9001 271.7 6.9001 308.2 6.7001C344.7 6.6001 315.1 6.5001 242.5 6.5001C169.9 6.5001 140.1 6.6001 176.2 6.7001Z" fill="#C1C1C1"/>
<path d="M46.6999 14.7001C46.1999 15.4001 91.6999 15.4001 150 14.7001C162.4 14.6001 144.3 14.4001 109.8 14.2001C75.2999 14.1001 46.8999 14.3001 46.6999 14.7001Z" fill="#C1C1C1"/>
<path d="M341.8 14.7001C344.1 14.9001 347.9 14.9001 350.3 14.7001C352.6 14.5001 350.7 14.3001 346 14.3001C341.3 14.3001 339.4 14.5001 341.8 14.7001Z" fill="#C1C1C1"/>
<path d="M434.3 14.7001C437.5 14.9001 442.4 14.9001 445.3 14.7001C448.2 14.5001 445.6 14.4001 439.5 14.4001C433.5 14.4001 431.1 14.5001 434.3 14.7001Z" fill="#C1C1C1"/>
<path d="M471.8 14.7001C474.1 14.9001 477.7 14.9001 479.8 14.7001C481.8 14.5001 479.9 14.3001 475.5 14.3001C471.1 14.3001 469.4 14.5001 471.8 14.7001Z" fill="#C1C1C1"/>
<path d="M510 14.3C510 14.5 511.5 15.9 513.3 17.6L516.5 20.5L513.6 17.2C510.8 14.2 510 13.5 510 14.3Z" fill="#C1C1C1"/>
<path d="M507.5 31C506 34 503.1 53.4 501 75.5C498.3 103.4 498 141.6 499.9 189C500.8 210 500.4 391.3 499.4 416.5C498.2 449 495.2 461.7 486.8 469.9C474 482.5 450 484.5 300 485.5C170.4 486.3 90.7 487.1 90 487.5C89.7 487.7 80.3 488 69.1 488.1L48.8 488.4L46.1 491.2C44.7 492.7 42.8 494.1 42 494.1C35.8 494.7 57.8 496 90.5 497C148.6 498.7 274.2 498.4 378 496.3C393.7 496 426.1 495.7 450.1 495.6L493.7 495.4L498.3 492.7C503.3 489.7 506.5 486 510 479.1C511.9 475.3 512.1 473.8 511.4 468.6C511 465.2 510.5 385.1 510.2 290.5C509.6 45.3 509.5 28 509.3 28C509.2 28 508.4 29.3 507.5 31Z" fill="#C1C1C1"/>
<path d="M522.8 33.5001C523.7 36.2001 525.1 39.1001 525.7 39.8001C526.4 40.5001 527.3 42.3001 527.6 43.8001C527.9 45.3001 528.4 47.2001 528.7 48.0001C528.9 48.8001 529 85.3001 528.8 129C528.5 218 528.5 276.4 528.9 400L529.2 484.5L526.9 489.5C523.5 496.9 517.5 504.6 512.3 508.4C502.7 515.3 516.5 514.8 318.5 515.5C220.1 515.8 121 516.3 98.5 516.6C61.8 517.1 56.9 516.9 52.5 515.4C49.7 514.5 47.3 513.5 47 513.1C46.7 512.8 45.2 511.9 43.7 511.2C42 510.5 41.2 509.5 41.6 508.8C42 508.1 41.9 508 41.2 508.4C40.5 508.8 40 508.6 40 508.1C40 507.5 39.4 507 38.7 507C38 507 35.4 505.3 32.9 503.3L28.5 499.5L32.7 504.6C35.1 507.4 38.9 511.4 41.2 513.4C43.6 515.4 46.2 517.7 47.1 518.5C52.2 523.2 41.2 523 266.2 522.4C381.9 522.1 482.4 521.8 489.5 521.8C501.6 521.8 503 521.6 509.6 518.9C517.8 515.5 522.9 510.6 528.5 501C535.6 488.7 535.2 492.9 535 426C534.8 392.7 534.7 293.9 534.6 206.5L534.5 47.5001L532.3 43.0001C531.1 40.5001 528.1 36.2001 525.6 33.5001L521.1 28.5001L522.8 33.5001Z" fill="#C1C1C1"/>
<path d="M397.7 33.7001C399.5 33.9001 402.7 33.9001 404.7 33.7001C406.8 33.5001 405.4 33.3001 401.5 33.3001C397.7 33.3001 396 33.5001 397.7 33.7001Z" fill="#C1C1C1"/>
<path d="M429.8 33.7001C440.9 33.9001 459.1 33.9001 470.3 33.7001C481.4 33.6001 472.3 33.5001 450 33.5001C427.7 33.5001 418.6 33.6001 429.8 33.7001Z" fill="#C1C1C1"/>
<path d="M141.3 49.4C141.2 52.7 141 57.1 140.7 59C140.5 60.9 140.2 63.1 140.1 63.7C140.1 64.4 139 65 137.7 65C136.4 65 133.9 66.1 132 67.5C129.1 69.6 127.5 70 121.6 70H114.5L117.3 72.7C119.7 75.2 120.8 75.5 126.8 75.5C132.5 75.5 134.3 75.1 137.7 72.8C142.6 69.6 145.1 64.5 145.8 56.5C146.2 51.1 145.9 49.8 143.9 46.8L141.5 43.3L141.3 49.4Z" fill="#C1C1C1"/>
<path d="M84.4999 50.3C84.4999 53.7 84.8999 57.1 85.3999 57.9C86.0999 59 85.8999 59.2 84.5999 58.7C83.1999 58.2 82.8999 58.4 83.3999 59.5C83.6999 60.4 83.3999 61 82.5999 61C81.8999 61 80.2999 62.1 79.0999 63.4C77.1999 65.4 76.9999 66.1 77.9999 68C79.9999 71.7 77.2999 73.4 69.5999 73.3C64.6999 73.2 62.0999 72.6 59.2999 70.9C55.4999 68.6 55.4999 68.6 57.3999 70.8C61.0999 75 73.1999 76.4 79.6999 73.3C81.7999 72.4 84.4999 69.7 86.1999 67.1C88.7999 63 89.0999 61.8 88.7999 56.4C88.5999 52.6 87.6999 49.2 86.3999 47.2L84.3999 44.1L84.4999 50.3Z" fill="#C1C1C1"/>
<path d="M42.2998 48.9999C42.2998 51.4999 42.4998 52.4999 42.6998 51.1999C42.8998 49.9999 42.8998 47.9999 42.6998 46.6999C42.4998 45.4999 42.2998 46.4999 42.2998 48.9999Z" fill="#C1C1C1"/>
<path d="M414.8 45.7001C428.7 45.9001 451.2 45.9001 464.8 45.7001C478.4 45.6001 467 45.5001 439.5 45.5001C412 45.5001 400.9 45.6001 414.8 45.7001Z" fill="#C1C1C1"/>
<path d="M23.5 151.5C23.5 197.1 23.6 216 23.7 193.3C23.9 170.7 23.9 133.3 23.7 110.3C23.6 87.3001 23.5 105.8 23.5 151.5Z" fill="#C1C1C1"/>
<path d="M74.5 70.4003C72.7 71.7003 72.7 71.8003 75.3 71.3003C76.8 71.0003 78 70.4003 78 69.9003C78 68.6003 76.7 68.8003 74.5 70.4003Z" fill="#C1C1C1"/>
<path d="M141.3 111.7C142.8 111.9 145.2 111.9 146.8 111.7C148.3 111.5 147 111.3 144 111.3C141 111.3 139.7 111.5 141.3 111.7Z" fill="#C1C1C1"/>
<path d="M316.8 111.7C319.6 111.9 324.4 111.9 327.3 111.7C330.1 111.5 327.8 111.4 322 111.4C316.2 111.4 313.9 111.5 316.8 111.7Z" fill="#C1C1C1"/>
<path d="M194.3 112.7C198 112.9 204 112.9 207.8 112.7C211.5 112.5 208.4 112.4 201 112.4C193.6 112.4 190.5 112.5 194.3 112.7Z" fill="#C1C1C1"/>
<path d="M220.5 121.7C220.6 123.8 221.3 124.6 224.3 125.6L228.1 126.9L224.3 123C222.3 120.8 220.5 119 220.4 119C220.4 119 220.4 120.2 220.5 121.7Z" fill="#C1C1C1"/>
<path d="M410 123.7C410 127.5 410.3 128 412.3 128C415.3 128 416.6 129 418.4 132.5C419.6 134.8 419.8 138.4 419.4 152.4C419.1 161.8 418.7 170.5 418.4 171.8C417.8 175 414.4 178 411.5 178C409.6 178 408.7 178.8 407.5 181.6C406.6 183.9 405 185.6 403.1 186.3L400.2 187.4L399.5 215.4C399.1 230.9 398.7 262.7 398.7 286.2C398.5 326.2 398.6 328.9 400.3 329.4C401.2 329.6 402.7 331.4 403.5 333.4C404.9 336.7 405.4 337 408.8 336.8L412.5 336.7L408.8 336.3C406.1 336 405 335.4 404.9 334.2C404.4 328.6 405.1 203.7 405.6 200C406.2 194.5 407 193.2 410.1 191.6C411.4 191 412.9 189.5 413.5 188.3C414 187.1 416.1 185.5 418.2 184.7C420.5 183.7 422.4 182.2 422.9 180.6C424.3 177.1 424.5 141.3 423.2 137.3C422.6 135.5 420.3 131.9 418.1 129.3C415.9 126.6 413.2 123.4 412.1 122L410.1 119.5L410 123.7Z" fill="#C1C1C1"/>
<path d="M154.8 126.7C163.1 126.9 176.9 126.9 185.3 126.7C193.6 126.6 186.8 126.4 170 126.4C153.2 126.4 146.4 126.6 154.8 126.7Z" fill="#C1C1C1"/>
<path d="M337.8 126.7C343.4 126.9 352.6 126.9 358.3 126.7C363.9 126.6 359.3 126.4 348 126.4C336.7 126.4 332.1 126.6 337.8 126.7Z" fill="#C1C1C1"/>
<path d="M117.4 140.5C117.4 146.5 117.5 148.9 117.7 145.7C117.9 142.5 117.9 137.6 117.7 134.7C117.5 131.8 117.4 134.4 117.4 140.5Z" fill="#C1C1C1"/>
<path d="M230.6 149.6C230.2 160.8 229.4 169.4 228.7 170.9C228 172.3 226 174.5 224.1 175.7L220.6 178V191C220.6 198.1 220.8 204.2 221.1 204.4C221.3 204.6 223.3 205.1 225.5 205.4C227.7 205.7 228.7 205.7 227.7 205.4C226 204.9 225.9 203.8 226.2 194.8C226.5 184.1 226.1 185 233 180C235.4 178.2 236.2 171.8 236.4 150C236.5 136.3 236.5 136 233.9 133.5L231.3 130.9L230.6 149.6Z" fill="#C1C1C1"/>
<path d="M386 135L376.5 135.6L385.7 135.8C391 135.9 395.1 135.6 395.5 135C395.8 134.4 396 134.1 395.8 134.2C395.6 134.3 391.2 134.7 386 135Z" fill="#C1C1C1"/>
<path d="M397.5 137C397.1 137.6 397.1 138.4 397.4 138.7C397.7 139.1 398 138.8 398 138.2C398 136.4 404.8 136.7 405.3 138.5C405.7 139.6 405.7 139.5 405.6 138.3C405.5 137 404.5 136.4 401.8 136.2C399.8 136 397.9 136.4 397.5 137Z" fill="#C1C1C1"/>
<path d="M138.3 142C138.3 144.5 138.5 145.5 138.7 144.2C138.9 143 138.9 141 138.7 139.7C138.5 138.5 138.3 139.5 138.3 142Z" fill="#C1C1C1"/>
<path d="M213 145.5C213 148.8 213.3 154.5 213.6 158.1C214.2 164.3 214.4 164.7 216.6 164.2C218.9 163.8 219 163.4 219 154.8C219 146.3 218.9 145.8 216 142.7L213 139.5V145.5Z" fill="#C1C1C1"/>
<path d="M398 153.3V166H401.5H405V156.7V147.4L401.5 144L398 140.6V153.3Z" fill="#C1C1C1"/>
<path d="M308.3 146.5C308.3 149.2 308.5 150.3 308.7 148.7C308.9 147.2 308.9 145 308.7 143.7C308.5 142.5 308.3 143.7 308.3 146.5Z" fill="#C1C1C1"/>
<path d="M14.5 194.5C14.5 218.1 14.6 227.7 14.7 215.7C14.9 203.7 14.9 184.3 14.7 172.7C14.6 161 14.5 170.8 14.5 194.5Z" fill="#C1C1C1"/>
<path d="M131.4 160C131.5 163.5 131.9 164.5 133.3 164.6C134.4 164.7 134.5 164.6 133.6 164.3C132.7 164.1 132 162.2 131.7 159.7L131.3 155.5L131.4 160Z" fill="#C1C1C1"/>
<path d="M293.3 165C293.3 168.6 293.5 170 293.7 168.2C293.9 166.5 293.9 163.5 293.7 161.7C293.5 160 293.3 161.4 293.3 165Z" fill="#C1C1C1"/>
<path d="M140.6 167.7C139.3 169.1 140.1 171.6 142.3 172.5C144.3 173.4 144.5 174.2 144.3 179.8C144.3 183.2 144.6 185.8 145.1 185.5C145.5 185.2 147.6 187.2 149.7 189.9C151.8 192.6 153.9 194.9 154.4 194.9C154.9 195 157.8 192.2 160.9 188.8L166.5 182.7L167.1 228.6L167.6 274.5V221.8C167.5 192.9 167.3 169 167 168.7C166.2 168 141.3 167.1 140.6 167.7Z" fill="#C1C1C1"/>
<path d="M202.7 168.7L200 169.1L200.2 199.3L200.5 229.5L208.5 229.8C216.3 230.1 216.6 230 216.8 227.8C217.3 222.3 216.3 221 211.5 221H207L206.9 201.2C206.8 190.4 206.7 179.5 206.6 177C206.5 172.8 206.7 172.5 209.3 172.2C211.2 172 212 171.3 212 169.9C212 167.9 209.8 167.7 202.7 168.7Z" fill="#C1C1C1"/>
<path d="M319.4 174.2C319.7 177.1 320 181.6 320 184.1C320 187.9 320.6 189.4 323.6 192.8C325.5 195.1 327.8 197 328.5 197C329.8 197 336.5 187 340.9 178.5C342.9 174.5 342.9 174.5 343 177.4C343 179 343.3 180.1 343.6 179.7C343.9 179.4 343.9 176.8 343.5 174.1L342.8 169H330.8H318.7L319.4 174.2Z" fill="#C1C1C1"/>
<path d="M382.9 169.7L379.3 170.1L378.5 255.3C378.1 302.2 377.7 342.3 377.6 344.5L377.5 348.4L387.2 348.5C392.6 348.6 397.3 348.9 397.6 349.3C398 349.7 398.5 357.9 398.7 367.6C399.1 381.6 398.9 385.5 397.8 386.1C397.1 386.6 383.5 387 367.5 386.9C351.6 386.9 334.1 386.9 328.8 386.9L319 387V390.7V394.3L338.7 393.7C349.5 393.3 367.7 393 379.1 393H399.9L400.2 388.2C400.5 383.9 400.7 383.5 403.3 383.2L406 382.9V368.2V353.5L401.5 350.7C399 349.2 395.8 348 394.4 348C393 348 392 347.5 392.1 346.7C392.2 346.1 392.2 344.1 392.1 342.3C392 339.3 391.9 339.2 388.1 339.7C386 340 384 339.8 383.7 339.3C383.4 338.8 383.8 326.7 384.7 312.5C385.8 292.4 386.1 273.9 385.7 231.2L385.2 176H390.1H395V172.5C395 169 395 169 390.8 169.2C388.4 169.3 384.9 169.5 382.9 169.7Z" fill="#C1C1C1"/>
<path d="M126.5 179C127.5 180.1 128.5 181 128.7 181C128.8 181 129 180.1 129 179C129 177.6 128.3 177 126.8 177C124.8 177 124.7 177.1 126.5 179Z" fill="#C1C1C1"/>
<path d="M300 181.3C300 181.5 301.6 183 303.5 184.7L307 187.8V184.4C307 181.2 306.8 181 303.5 181C301.6 181 300 181.1 300 181.3Z" fill="#C1C1C1"/>
<path d="M129.4 192C129.4 197.8 129.5 200.1 129.7 197.2C129.9 194.4 129.9 189.6 129.7 186.7C129.5 183.9 129.4 186.2 129.4 192Z" fill="#C1C1C1"/>
<path d="M320.4 209.5C320.4 216.1 320.5 218.7 320.7 215.2C320.9 211.8 320.9 206.4 320.7 203.2C320.5 200.1 320.4 202.9 320.4 209.5Z" fill="#C1C1C1"/>
<path d="M305.1 205.7C305 207.1 304.2 208 302.8 208.3L300.5 208.7L302.8 208.9C305.2 209 306.6 207 305.7 204.8C305.4 204.1 305.1 204.5 305.1 205.7Z" fill="#C1C1C1"/>
<path d="M234.3 206.7C235.2 206.9 236.8 206.9 237.8 206.7C238.7 206.4 237.9 206.2 236 206.2C234.1 206.2 233.3 206.4 234.3 206.7Z" fill="#C1C1C1"/>
<path d="M252.3 207.7C253.2 207.9 254.8 207.9 255.8 207.7C256.7 207.4 255.9 207.2 254 207.2C252.1 207.2 251.3 207.4 252.3 207.7Z" fill="#C1C1C1"/>
<path d="M275.8 208.7C277.6 208.9 280.3 208.9 281.8 208.7C283.3 208.5 281.8 208.3 278.5 208.3C275.2 208.3 274 208.5 275.8 208.7Z" fill="#C1C1C1"/>
<path d="M343.2 222.2L343 230L304.8 230.3L266.5 230.5L304.8 230.8C336.1 231 343.2 230.8 343.6 229.7C343.9 228.9 343.9 225.2 343.7 221.4L343.4 214.5L343.2 222.2Z" fill="#C1C1C1"/>
<path d="M128.4 247C128.4 252.8 128.5 255.1 128.7 252.2C128.9 249.4 128.9 244.6 128.7 241.7C128.5 238.9 128.4 241.2 128.4 247Z" fill="#C1C1C1"/>
<path d="M127.4 287C127.4 293.9 127.5 296.7 127.7 293.2C127.9 289.8 127.9 284.2 127.7 280.7C127.5 277.3 127.4 280.1 127.4 287Z" fill="#C1C1C1"/>
<path d="M251.8 284.8L199 285V316V347H205.6C210.4 347 212.1 346.7 211.8 345.7C211.5 345.1 210 344.3 208.4 344L205.5 343.5V317V290.5L262.3 290.2L319 290V297.9V305.8L325.8 306.9C329.5 307.6 333.5 308.3 334.7 308.6C336.5 308.9 337.4 308 340 303.3C342.7 298.2 343 296.7 342.8 291L342.5 284.5H323.5C313.1 284.5 280.8 284.6 251.8 284.8Z" fill="#C1C1C1"/>
<path d="M15.3999 311.5C15.3999 323 15.5999 327.6 15.6999 321.7C15.8999 315.8 15.8999 306.3 15.6999 300.7C15.5999 295.1 15.3999 299.9 15.3999 311.5Z" fill="#C1C1C1"/>
<path d="M219 318.2V332.6L223.6 337C226.6 339.9 227.7 340.6 226.7 339C225.6 337.1 225.3 333.9 225.5 325.1C225.9 312.7 226.3 311.9 232 311.4C238.8 310.9 299 311 301.3 311.5C302.7 311.9 304.1 312.9 304.3 313.8C304.5 314.8 304.5 313.5 304.2 311C304 308.5 303.4 306.1 302.9 305.6C302.4 305.1 283.8 304.5 260.5 304.2L219 303.7V318.2Z" fill="#C1C1C1"/>
<path d="M128.1 325.6C128 328.6 126 331.2 123 332.3C121.7 332.8 121.7 332.9 123.1 332.9C125.8 333.1 129.2 328.5 128.7 325.4L128.3 322.5L128.1 325.6Z" fill="#C1C1C1"/>
<path d="M418.8 364.3C419 375.9 418.8 387 418.5 388.9C417.7 393.1 413.9 397 410.5 397C408.3 397 408 397.4 408 400.3C408 402.5 407.2 404.4 405.9 405.6C403.5 407.7 407.5 407.7 343.2 406.4C310.7 405.8 309.9 405.8 311 407.6C311.7 408.7 313.3 410.3 314.6 411.3C316.9 413 320.1 413.1 362.2 413C409.8 412.9 411.3 412.8 413.5 408.4C415.3 404.8 417.1 403 419.1 403C422.5 403 423 399.7 423 378.3C423 354.6 422.4 348.2 420.1 345.2C418.6 343.2 418.5 344.4 418.8 364.3Z" fill="#C1C1C1"/>
<path d="M124.4 364C124.4 374.7 124.6 379.1 124.7 373.7C124.9 368.4 124.9 359.6 124.7 354.2C124.6 348.9 124.4 353.3 124.4 364Z" fill="#C1C1C1"/>
<path d="M132.2 365.2L132 382.9L128.8 383.3L125.5 383.7L128.8 383.8C130.7 383.9 132.3 383.5 132.6 382.7C132.8 382 132.9 373.8 132.7 364.5L132.4 347.5L132.2 365.2Z" fill="#C1C1C1"/>
<path d="M232 369.6C232 390.5 231.9 391.7 229.9 393.9C228.8 395.1 226.5 396.3 224.9 396.7C222.4 397.2 222 397.7 222 400.6C222 407.2 222.7 407.1 172.4 406.4C147.7 406.1 127.1 405.6 126.5 405.3C126 405 127.4 406.7 129.7 408.9L133.9 413H178C215.6 413 222.5 412.8 225 411.5C226.7 410.6 228 409.3 228 408.5C228 405.7 230.4 402 232.1 402C233.1 402 234.4 401.2 234.9 400.2C236.5 397.3 236.9 385.5 236.1 368.4C235.5 355.9 235 351.8 233.7 350C232.1 347.7 232 348.6 232 369.6Z" fill="#C1C1C1"/>
<path d="M316.4 358C316.4 363.2 316.5 365.4 316.7 362.7C316.9 360.1 316.9 355.9 316.7 353.2C316.5 350.6 316.4 352.8 316.4 358Z" fill="#C1C1C1"/>
<path d="M110.3 354.5C110.3 357.2 110.5 358.3 110.7 356.7C110.9 355.2 110.9 353 110.7 351.7C110.5 350.5 110.3 351.7 110.3 354.5Z" fill="#C1C1C1"/>
<path d="M213 367.5V384H216.1H219.1L218.4 368.2C218 358.6 217.3 352.2 216.6 351.8C213.3 349.6 213 350.8 213 367.5Z" fill="#C1C1C1"/>
<path d="M15.3999 386C15.3999 398.9 15.5999 404.2 15.6999 397.7C15.8999 391.3 15.8999 380.7 15.6999 374.2C15.5999 367.8 15.3999 373.1 15.3999 386Z" fill="#C1C1C1"/>
<path d="M294.2 370C294.2 371.9 294.4 372.7 294.7 371.7C294.9 370.8 294.9 369.2 294.7 368.2C294.4 367.3 294.2 368.1 294.2 370Z" fill="#C1C1C1"/>
<path d="M109.3 371.5C109.3 373.7 109.5 374.5 109.7 373.2C109.9 372 109.9 370.2 109.7 369.2C109.4 368.3 109.2 369.3 109.3 371.5Z" fill="#C1C1C1"/>
<path d="M307.2 376C307.2 377.9 307.4 378.7 307.7 377.7C307.9 376.8 307.9 375.2 307.7 374.2C307.4 373.3 307.2 374.1 307.2 376Z" fill="#C1C1C1"/>
<path d="M133 389.1V391.7L149.7 392.3C158.8 392.7 176.6 393 189.2 393H212V389.7V386.5H172.5H133V389.1Z" fill="#C1C1C1"/>
<path d="M23.3999 407C23.3999 416.6 23.5999 420.6 23.6999 415.7C23.8999 410.9 23.8999 403.1 23.6999 398.2C23.5999 393.4 23.3999 397.4 23.3999 407Z" fill="#C1C1C1"/>
<path d="M117.8 396.7C119.8 399.1 120.6 399.6 120.8 398.5C121.4 395.9 120.3 394.3 117.7 393.8L115.2 393.3L117.8 396.7Z" fill="#C1C1C1"/>
<path d="M299 394.3C299.7 395.3 301.6 397 303.2 398.1L306 400.1V397.6C306 395.4 305.5 395 303.2 395C301.7 395 299.8 394.4 299 393.7C297.8 392.7 297.8 392.8 299 394.3Z" fill="#C1C1C1"/>
<path d="M14.3999 432.5C14.3999 440.2 14.5999 443.2 14.6999 439.2C14.8999 435.2 14.8999 428.9 14.6999 425.2C14.4999 421.5 14.3999 424.8 14.3999 432.5Z" fill="#C1C1C1"/>
<path d="M14.3999 467C14.3999 472.8 14.4999 475.1 14.6999 472.2C14.8999 469.4 14.8999 464.6 14.6999 461.7C14.4999 458.9 14.3999 461.2 14.3999 467Z" fill="#C1C1C1"/>
<path d="M26 478.3C26 478.5 27.5 479.9 29.3 481.6L32.5 484.5L29.6 481.2C26.8 478.2 26 477.5 26 478.3Z" fill="#C1C1C1"/>
<path d="M112.8 38.1C110.3 39.5 108.8 42.7 109.5 45C110.1 47 113 47.8 113 46.1C113 45.6 114.2 43.7 115.6 41.8C117.7 39.1 117.5 39.2 114.7 42.3C112.6 44.6 110.9 45.7 110.5 45C109.4 43.2 111 40.1 113.8 38.5C115.3 37.7 116.1 37.1 115.5 37.1C115 37.1 113.7 37.5 112.8 38.1Z" fill="#ECECC1"/>
<path d="M501.2 66.0003C501.2 67.9003 501.4 68.7003 501.7 67.7003C501.9 66.8003 501.9 65.2003 501.7 64.2003C501.4 63.3003 501.2 64.1003 501.2 66.0003Z" fill="#ECECC1"/>
<path d="M62.0998 75.6C62.6998 76.3 63.6998 76.7 64.2998 76.3C64.7998 76 64.9998 76.2 64.6998 76.7C64.2998 77.3 64.5998 78.3 65.3998 78.9C66.3998 79.8 67.7998 79.4 71.0998 77.5L75.4998 75L69.9998 74.9C66.9998 74.9 63.6998 74.7 62.6998 74.5C61.1998 74.2 61.0998 74.4 62.0998 75.6Z" fill="#ECECC1"/>
<path d="M499.3 92.5C499.3 94.7 499.5 95.5 499.7 94.2C499.9 93 499.9 91.2 499.7 90.2C499.4 89.3 499.2 90.3 499.3 92.5Z" fill="#ECECC1"/>
<path d="M498.3 116C498.3 120.1 498.5 121.8 498.7 119.7C498.9 117.7 498.9 114.3 498.7 112.2C498.5 110.2 498.3 111.9 498.3 116Z" fill="#ECECC1"/>
<path d="M498.3 164C498.3 167 498.5 168.3 498.7 166.7C498.9 165.2 498.9 162.8 498.7 161.2C498.5 159.7 498.3 161 498.3 164Z" fill="#ECECC1"/>
<path d="M236.3 166.5C236.3 169.8 236.5 171 236.7 169.2C236.9 167.4 236.9 164.7 236.7 163.2C236.5 161.7 236.3 163.2 236.3 166.5Z" fill="#ECECC1"/>
<path d="M423.8 171.9C423.5 181.3 421.8 185 417.9 185C416 185 412.3 189.6 413.3 190.6C413.6 190.9 414.6 190 415.5 188.7C416.4 187.3 418.5 185.8 420.1 185.5C421.9 185.1 423.5 183.9 423.9 182.7C424.8 180.4 425.4 163 424.7 163C424.4 163 424 167 423.8 171.9Z" fill="#ECECC1"/>
<path d="M499.3 181.5C499.3 183.7 499.5 184.5 499.7 183.2C499.9 182 499.9 180.2 499.7 179.2C499.4 178.3 499.2 179.3 499.3 181.5Z" fill="#ECECC1"/>
<path d="M230.8 181.6C228.7 183 227 184.8 227 185.7C227 187.1 227.3 187 228.6 185.2C229.4 184 230.6 183 231.1 183C232.3 183 235.4 180.1 234.9 179.6C234.7 179.4 232.8 180.3 230.8 181.6Z" fill="#ECECC1"/>
<path d="M226.3 195.5C226.3 199.9 226.5 201.6 226.7 199.2C226.9 196.9 226.9 193.3 226.7 191.2C226.5 189.2 226.3 191.1 226.3 195.5Z" fill="#ECECC1"/>
<path d="M408.3 192.7C407.6 192.9 407 194.1 407.1 195.3C407.1 197.4 407.2 197.4 407.9 195.6C408.3 194.5 409.5 193.3 410.6 192.9C411.8 192.4 411.9 192.1 411 192.1C410.2 192.2 408.9 192.4 408.3 192.7Z" fill="#ECECC1"/>
<path d="M405.7 200.9C405 204.1 404.7 261.6 405.4 260.9C405.8 260.5 406.9 198 406.5 198C406.4 198 406 199.3 405.7 200.9Z" fill="#ECECC1"/>
<path d="M500.5 252.5C500.5 273.9 500.6 282.6 500.7 271.7C500.9 260.8 500.9 243.2 500.7 232.7C500.6 222.1 500.5 231 500.5 252.5Z" fill="#ECECC1"/>
<path d="M238.4 312.1C238.1 312.6 239 313 240.4 313C243.5 313 243.8 312.4 241 311.7C239.9 311.4 238.7 311.6 238.4 312.1Z" fill="#ECECC1"/>
<path d="M256.3 311.7C260 311.9 265.9 311.9 269.3 311.7C272.7 311.5 269.7 311.4 262.5 311.4C255.4 311.4 252.6 311.5 256.3 311.7Z" fill="#ECECC1"/>
<path d="M281.8 311.7C285.2 311.9 290.8 311.9 294.3 311.7C297.7 311.5 294.9 311.4 288 311.4C281.1 311.4 278.3 311.5 281.8 311.7Z" fill="#ECECC1"/>
<path d="M227.3 312.7C226.6 312.9 226 313.9 226 314.8C226 316.2 226.1 316.2 227.3 314.8C227.9 313.9 229.2 313 230 312.7C231.3 312.2 231.3 312.2 230 312.2C229.2 312.2 227.9 312.4 227.3 312.7Z" fill="#ECECC1"/>
<path d="M404.6 322.6C404.2 324 404.1 325.5 404.4 325.7C404.7 326 405.2 325 405.6 323.6C405.9 322.1 406 320.7 405.7 320.4C405.5 320.1 404.9 321.1 404.6 322.6Z" fill="#ECECC1"/>
<path d="M236.3 367.5C236.3 371.9 236.5 373.6 236.7 371.2C236.9 368.9 236.9 365.3 236.7 363.2C236.5 361.2 236.3 363.1 236.3 367.5Z" fill="#ECECC1"/>
<path d="M423.4 380C423.4 391.3 423.6 395.9 423.7 390.2C423.9 384.6 423.9 375.4 423.7 369.7C423.6 364.1 423.4 368.7 423.4 380Z" fill="#ECECC1"/>
<path d="M499.4 377.5C499.4 385.2 499.6 388.2 499.7 384.2C499.9 380.2 499.9 373.9 499.7 370.2C499.5 366.5 499.4 369.8 499.4 377.5Z" fill="#ECECC1"/>
<path d="M499.4 402C499.4 407.2 499.5 409.4 499.7 406.7C499.9 404.1 499.9 399.9 499.7 397.2C499.5 394.6 499.4 396.8 499.4 402Z" fill="#ECECC1"/>
<path d="M235.7 397.7C235.3 399.8 234.2 401.3 232.3 402.2C230.5 403 229.1 404.8 228.4 407C227.8 408.9 226.2 411.1 224.9 411.7C223.1 412.7 211.5 413 178.6 413C154.4 413 134.9 413.2 135.1 413.4C135.9 414.2 223.5 414.4 225.8 413.7C227.3 413.1 228.3 411.6 229.1 408.4C229.9 405.1 230.8 403.8 232.5 403.4C235.1 402.8 237.4 399.1 236.8 396.4C236.5 395.1 236.2 395.4 235.7 397.7Z" fill="#ECECC1"/>
<path d="M421.5 402C421.2 402.5 420.1 403 419.1 403C416.8 403 413.6 406.5 414.3 408.2C414.7 409 415.1 408.7 415.5 407.2C415.9 406 416.8 405 417.5 405C418.8 405 424 401.1 422.8 401C422.4 401 421.8 401.4 421.5 402Z" fill="#ECECC1"/>
<path d="M410 411.6C408.4 412.5 403.7 413 396.5 413.2L385.5 413.4L394.5 413.9C405.9 414.6 409 414.3 412 411.9C414.9 409.8 413.7 409.5 410 411.6Z" fill="#ECECC1"/>
<path d="M321.2 413.6C321.9 414.2 384.2 414.1 384.9 413.5C385.1 413.2 370.8 413 353 413C335.2 413 320.9 413.2 321.2 413.6Z" fill="#ECECC1"/>
<path d="M414.3 483.7C416.3 483.9 419.7 483.9 421.8 483.7C423.8 483.5 422.1 483.3 418 483.3C413.9 483.3 412.2 483.5 414.3 483.7Z" fill="#ECECC1"/>
<path d="M375.3 484.7C379 484.9 384.9 484.9 388.3 484.7C391.7 484.5 388.7 484.4 381.5 484.4C374.4 484.4 371.6 484.5 375.3 484.7Z" fill="#ECECC1"/>
<path d="M244.7 485.7C252.6 485.9 265.4 485.9 273.3 485.7C281.1 485.6 274.7 485.4 259 485.4C243.3 485.4 236.9 485.6 244.7 485.7Z" fill="#ECECC1"/>
<path d="M107.8 486.7C110.1 486.9 113.7 486.9 115.8 486.7C117.8 486.5 115.9 486.3 111.5 486.3C107.1 486.3 105.4 486.5 107.8 486.7Z" fill="#ECECC1"/>
<path d="M73.8 487.7C75.6 487.9 78.3 487.9 79.8 487.7C81.3 487.5 79.8 487.3 76.5 487.3C73.2 487.3 72 487.5 73.8 487.7Z" fill="#ECECC1"/>
<path d="M331.8 522.7C333 522.9 335 522.9 336.3 522.7C337.5 522.5 336.5 522.3 334 522.3C331.5 522.3 330.5 522.5 331.8 522.7Z" fill="#ECECC1"/>
<path d="M460.8 522.7C462 522.9 463.8 522.9 464.8 522.7C465.7 522.4 464.7 522.2 462.5 522.3C460.3 522.3 459.5 522.5 460.8 522.7Z" fill="#ECECC1"/>
<path d="M0 261.5V523L27.8 522.9C43 522.8 54.5 522.5 53.3 522.2C49.8 521.1 45.4 517.4 34.7 506.5C23.4 494.9 17.8 487.1 15.3 479.4C13.8 474.4 13.7 468.9 14.6 404.2C15.1 365.9 15.3 315.1 15 291.5C14.7 267.8 14.5 200.3 14.5 141.5V34.5L17.4 29C23.1 18.2 29.6 12.1 39.9 7.99999L45.2 5.99999L269.4 5.69999L493.6 5.49999L502.3 9.79999C510.9 14.1 516.3 18.9 519.7 25.5C520.6 27.1 523.5 31 526.1 34.1C535.4 44.8 534.5 27.2 534.6 204C534.7 290.1 534.9 388.8 535 423.5C535.2 478.3 535 487.1 533.6 490.8C531 498 524 508.9 519 513.3C511.9 519.7 506.8 521.3 491 522C480.3 522.5 483.9 522.7 507.8 522.8L538 523V261.5V-7.79331e-06H269H0V261.5Z" fill="#FFFEFE"/>
<path d="M201 14.9L46.4998 15.5L37.3998 21.7C29.2998 27.2 28.0998 28.4 25.9998 33.2L23.6998 38.5L23.2998 253C23.0998 371 22.8998 468.8 22.7998 470.3C22.7998 472 23.7998 474.3 25.5998 476.4C27.1998 478.3 31.1998 483 34.4998 486.9C37.6998 490.8 40.9998 494 41.6998 494C42.3998 494 44.2998 492.7 45.7998 491.1L48.4998 488.1L85.9998 487.1C106.6 486.5 169.6 485.8 226 485.5C390.8 484.6 422.6 484 449.6 481C458.9 479.9 469.5 478.1 473.1 477C489.4 472 495.4 461.5 498.1 433C499.2 421.5 499.6 264.4 498.8 134.5C498.6 113 499.1 92.9 499.9 82.5C501.6 59.3 505.6 32.1 507.6 29.9C509 28.4 508.6 27.8 502.8 23.3C499.3 20.5 495.4 17.6 494 16.7C491.7 15.2 484.1 15 423.5 14.7C386.1 14.5 286 14.6 201 14.9ZM73.6998 30.6C77.7998 33 80.7998 36.4 84.0998 42.4C84.9998 44.1 86.3998 46.8 87.2998 48.5C90.6998 54.6 88.5998 66.7 83.3998 71.1C82.4998 71.9 78.2998 74.2 74.0998 76.2L66.4998 79.9L60.9998 74.6C57.9998 71.7 53.7998 68.1 51.6998 66.6C46.3998 62.7 42.8998 56.8 42.2998 50.4C41.7998 46 42.1998 44.2 44.3998 39.7C49.9998 28.2 62.5998 24.3 73.6998 30.6ZM129.6 29.9C133.5 31.7 141 39.3 141 41.5C141 42.1 142.1 44.1 143.5 46C147.9 51.9 146.6 64 140.9 70.5C135.2 76.9 123.1 77.9 116.7 72.4C114.9 70.8 111.3 68.1 108.7 66.3C96.0998 57.6 96.3998 39.9 109.4 31.2C113.4 28.5 115.1 28 119.9 28C123.2 28 127.2 28.8 129.6 29.9ZM492.2 34.7C494.6 36.9 494.6 41.6 492.1 43C490.8 43.6 472.4 44 439.1 44C394.1 44 388 43.8 386.6 42.4C384.5 40.4 384.6 37.1 386.7 34.8C388.2 33.1 391.2 33 439.3 33C485.4 33 490.5 33.2 492.2 34.7ZM491 46.3C492.6 47.1 493.6 48.6 493.8 50.3C494.5 56.2 496.5 56 439.5 56C382.5 56 384.5 56.2 385.2 50.3C385.8 45.1 386.3 45 439.5 45C476.9 45 489.1 45.3 491 46.3ZM215.2 113.1C216.7 113.7 219 115.8 220.4 117.8C221.8 119.9 225.7 124.4 229 128C232.4 131.6 235.6 135.3 236.1 136.3C237.5 138.8 237 174.8 235.6 178C234.3 181 232.5 183 231.1 183C228.4 183 227 187.6 227 196.2C227 203.6 227.3 204.9 228.8 205.4C234.4 207.1 303 209.3 304.5 207.8C305.3 207 307 189.2 306.4 187.6C306.2 187 303.7 184.6 300.9 182.5C298.1 180.3 295.3 177.6 294.7 176.5C292.9 173.6 292.4 130.5 294.1 127.4C295.5 124.8 300.8 122.6 303.3 123.6C304.7 124.1 305 123.5 305 120.2C305 117.8 305.7 115.3 306.9 113.9L308.8 111.5L355.7 111.9C407 112.3 406.1 112.2 409.7 118.3C410.8 120.1 414.3 124.6 417.4 128.3C420.5 131.9 423 135.6 423 136.4C423 137.2 423.5 138.2 424 138.5C425.3 139.3 425.2 179.4 424 182.6C423.5 183.8 421.9 185.1 420.4 185.4C418.9 185.8 416.2 187.7 414.5 189.6C412.8 191.5 410.8 193 410.2 193C406.8 193 406.2 203.6 405.4 276C405.2 304.3 404.9 328.2 404.8 329C404.4 334.8 404.9 336 408.3 336C412.9 336.1 415.5 337.8 419.2 343.5C423.2 349.5 423.9 354.7 423.9 381.3C424 400 424 400.1 421.5 402.5C420.2 403.9 418.5 405 417.8 405C417.1 405 415.9 406.3 415.2 407.9C413.6 411.6 410.1 413.9 405.8 414C404 414.1 385.3 414.1 364.2 414.1C343.2 414 325.6 414.1 325.2 414.1C320.1 414.9 317.2 413.7 311.7 408.5C308.6 405.5 306 402.6 306 402C306 401.4 303.2 398.3 299.8 395.1L293.5 389.2L293.7 367.5C293.9 343 294 342.5 301.6 338.4L305.5 336.3L305.3 328.4C305.2 324.1 304.8 318.5 304.5 316.2L303.9 311.8L266.3 312.2C230.6 312.5 228.8 312.6 227.4 314.4C225.7 316.7 225.4 338.5 227 339.5C227.5 339.8 229.9 343.3 232.2 347.3L236.4 354.5L236.8 376.4C237.3 399.7 236.8 402.3 232.5 403.4C230.8 403.8 229.9 405.1 229.1 408.4C228.3 411.6 227.3 413.1 225.8 413.7C224.5 414.1 203.7 414.3 179.5 414.1L135.5 413.8L132.5 411.5C130.9 410.3 127 406.7 124 403.5C121 400.4 116.3 395.6 113.6 392.8L108.7 387.8L109.4 370.3C110.9 335.3 111.8 332 120.5 332C128.3 332 128.2 332 127.8 300.8C127.7 285.8 127.9 252.8 128.4 227.6L129.3 181.7L123.2 176L117 170.3V150.4C117 126.9 117.4 125.7 124 125C128.4 124.5 128.5 124.4 129.1 120.2C129.7 115.2 131.6 113 136 112.1C141.1 111.1 212.2 112 215.2 113.1Z" fill="#FFFEFE"/>
<path d="M55.2002 39C53.0002 41.1 52.1002 46 54.0002 46C54.5002 46 55.5002 45 56.1002 43.7C56.8002 42.5 58.1002 40.9 59.2002 40.2C60.2002 39.5 61.0002 38.5 61.0002 37.9C61.0002 36.3 57.4002 36.9 55.2002 39Z" fill="#FFFEFE"/>
<path d="M113.8 38.5002C111.1 40.0002 109.4 43.2002 110.5 45.0002C111 45.8002 119 38.6002 119 37.3002C119 36.6002 116.3 37.2002 113.8 38.5002Z" fill="#FFFEFE"/>
<path d="M171.8 126.8L140 127V131.5V136H175.1H210.1L209.8 131.2C209.5 126.7 209.4 126.5 206.5 126.5C204.9 126.5 189.2 126.6 171.8 126.8Z" fill="#FFFEFE"/>
<path d="M315 132.2C315 137.9 315 138 312.2 138H309.3L308.7 148.7C308.3 154.5 308 161.3 308 163.7V168H313H318V152V136L345.8 135.9C361 135.8 378.5 135.5 384.5 135.1L395.5 134.5L395.8 131.2C396 129.2 395.6 127.8 394.8 127.6C394.1 127.3 375.8 127 354.3 126.8L315 126.4V132.2Z" fill="#FFFEFE"/>
<path d="M132 149.8C132 163.4 132.1 163.8 134.3 164.4C139.3 165.7 139.2 165.9 138.9 151C138.6 142.6 138.1 137 137.5 137C137 137 135.5 136.7 134.3 136.4L132 135.8V149.8Z" fill="#FFFEFE"/>
<path d="M212.6 136.9C211.9 138 217.5 145.2 218.4 144.3C218.7 144 219 141.9 219 139.8C219 136.3 218.8 136 216.1 136C214.4 136 212.9 136.4 212.6 136.9Z" fill="#FFFEFE"/>
<path d="M398 138.8C398 139.8 399.6 142.1 401.5 144L405 147.4V142.2V137H401.5C398.8 137 398 137.4 398 138.8Z" fill="#FFFEFE"/>
<path d="M340.6 178.7C337.3 185.7 329.9 197 328.5 197C327.8 197 325.8 195.4 324.1 193.5C322.4 191.6 320.9 190 320.7 190C320.4 190 320.5 197 320.8 205.5L321.3 221H268.9H216.5L216.8 225.5L217.2 230H280.1H343V202.5C343 187.4 342.9 175 342.7 175C342.5 175 341.6 176.7 340.6 178.7Z" fill="#FFFEFE"/>
<path d="M160.3 189.6L154.4 196.2L150.2 190.6C147.8 187.5 145.5 185.2 144.9 185.5C144.4 185.9 144 215.2 144 261.7V337.2L138.5 336.8L133.1 336.5L132.8 340.5C132.5 344.3 132.3 344.5 128.8 344.8L125 345.1V364.1V383H128.5H132V366.1C132 356.8 132.2 348.6 132.5 347.8C132.9 346.8 136.5 346.6 150 346.9L167 347.2V265.1C167 219.9 166.8 183 166.6 183C166.4 183 163.6 186 160.3 189.6Z" fill="#FFFEFE"/>
<path d="M340 303.4C338.9 305.9 337.6 308.1 337.1 308.4C336.7 308.7 332.5 308.3 327.9 307.5C323.3 306.7 319.4 306 319.3 306C319.1 306 319 315.4 319 327V348H331H343V323.5C343 310 342.8 299 342.5 299C342.3 299 341.1 301 340 303.4Z" fill="#FFFEFE"/>
<path d="M392 347C392 347.5 393.1 348 394.5 348C395.9 348 398.8 349.1 401 350.5C403.2 351.9 405.2 353 405.5 353C405.8 353 406 351.4 406 349.5V346H399C395 346 392 346.4 392 347Z" fill="#FFFEFE"/>
<path d="M213 349.4C213 350.1 213.9 351 215 351.3C217.4 351.9 217.8 349.5 215.4 348.6C213.2 347.8 213 347.8 213 349.4Z" fill="#FFFEFE"/>
<path d="M308.6 358.7C308.3 364.1 307.8 372.2 307.5 376.7L307 385H312.1H317.3L316.7 372.2C316.3 365.2 316 357.1 316 354.2V349H312.6H309.2L308.6 358.7Z" fill="#FFFEFE"/>
<path d="M287.3 522.7C288.8 522.9 291 522.9 292.3 522.7C293.5 522.5 292.3 522.3 289.5 522.3C286.8 522.3 285.7 522.5 287.3 522.7Z" fill="#FFFEFE"/>
<path d="M303.8 522.7C306.1 522.9 309.7 522.9 311.8 522.7C313.8 522.5 311.9 522.3 307.5 522.3C303.1 522.3 301.4 522.5 303.8 522.7Z" fill="#FFFEFE"/>
<path d="M373.3 522.7C375.3 522.9 378.7 522.9 380.8 522.7C382.8 522.5 381.1 522.3 377 522.3C372.9 522.3 371.2 522.5 373.3 522.7Z" fill="#FFFEFE"/>
<path d="M403.3 522.7C411.4 522.9 424.6 522.9 432.8 522.7C440.9 522.6 434.2 522.4 418 522.4C401.8 522.4 395.1 522.6 403.3 522.7Z" fill="#FFFEFE"/>
<path d="M467.8 522.7C469 522.9 470.8 522.9 471.8 522.7C472.7 522.4 471.7 522.2 469.5 522.3C467.3 522.3 466.5 522.5 467.8 522.7Z" fill="#FFFEFE"/>
</g>
<defs>
<clipPath id="clip0_74_35">
<rect width="538" height="523" fill="white"/>
</clipPath>
</defs>
</svg>
